<svg width="282" height="182" viewBox="0 0 282 182" fill="none" xmlns="http://www.w3.org/2000/svg">
<g filter="url(#filter0_d_1_258)">
<rect x="10" y="9" width="262" height="162" rx="12" fill="white"/>
<path d="M31.4091 48V36.3636H35.3409C36.25 36.3636 36.9962 36.5189 37.5795 36.8295C38.1629 37.1364 38.5947 37.5587 38.875 38.0966C39.1553 38.6345 39.2955 39.2462 39.2955 39.9318C39.2955 40.6174 39.1553 41.2254 38.875 41.7557C38.5947 42.286 38.1648 42.7027 37.5852 43.0057C37.0057 43.3049 36.2652 43.4545 35.3636 43.4545H32.1818V42.1818H35.3182C35.9394 42.1818 36.4394 42.0909 36.8182 41.9091C37.2008 41.7273 37.4773 41.4697 37.6477 41.1364C37.822 40.7992 37.9091 40.3977 37.9091 39.9318C37.9091 39.4659 37.822 39.0587 37.6477 38.7102C37.4735 38.3617 37.1951 38.0928 36.8125 37.9034C36.4299 37.7102 35.9242 37.6136 35.2955 37.6136H32.8182V48H31.4091ZM36.8864 42.7727L39.75 48H38.1136L35.2955 42.7727H36.8864ZM45.027 48.1818C44.1861 48.1818 43.4607 47.9962 42.8509 47.625C42.2448 47.25 41.777 46.7273 41.4474 46.0568C41.1217 45.3826 40.9588 44.5985 40.9588 43.7045C40.9588 42.8106 41.1217 42.0227 41.4474 41.3409C41.777 40.6553 42.2353 40.1212 42.8224 39.7386C43.4134 39.3523 44.1027 39.1591 44.8906 39.1591C45.3452 39.1591 45.794 39.2348 46.2372 39.3864C46.6804 39.5379 47.0838 39.7841 47.4474 40.125C47.8111 40.4621 48.1009 40.9091 48.3168 41.4659C48.5327 42.0227 48.6406 42.7083 48.6406 43.5227V44.0909H41.9134V42.9318H47.277C47.277 42.4394 47.1785 42 46.9815 41.6136C46.7884 41.2273 46.5118 40.9223 46.152 40.6989C45.7959 40.4754 45.3755 40.3636 44.8906 40.3636C44.3565 40.3636 43.8944 40.4962 43.5043 40.7614C43.1179 41.0227 42.8205 41.3636 42.6122 41.7841C42.4039 42.2045 42.2997 42.6553 42.2997 43.1364V43.9091C42.2997 44.5682 42.4134 45.1269 42.6406 45.5852C42.8717 46.0398 43.1918 46.3864 43.6009 46.625C44.0099 46.8598 44.4853 46.9773 45.027 46.9773C45.3793 46.9773 45.6974 46.928 45.9815 46.8295C46.2694 46.7273 46.5175 46.5758 46.7259 46.375C46.9342 46.1705 47.0952 45.9167 47.2088 45.6136L48.5043 45.9773C48.3679 46.4167 48.1387 46.803 47.8168 47.1364C47.4948 47.4659 47.0971 47.7235 46.6236 47.9091C46.1501 48.0909 45.6179 48.1818 45.027 48.1818ZM54.4759 39.2727V40.4091H49.9531V39.2727H54.4759ZM51.2713 37.1818H52.6122V45.5C52.6122 45.8788 52.6671 46.1629 52.777 46.3523C52.8906 46.5379 53.0346 46.6629 53.2088 46.7273C53.3868 46.7879 53.5743 46.8182 53.7713 46.8182C53.919 46.8182 54.0402 46.8106 54.1349 46.7955C54.2296 46.7765 54.3054 46.7614 54.3622 46.75L54.6349 47.9545C54.544 47.9886 54.4171 48.0227 54.2543 48.0568C54.0914 48.0947 53.8849 48.1136 53.6349 48.1136C53.2562 48.1136 52.8849 48.0322 52.5213 47.8693C52.1615 47.7064 51.8622 47.4583 51.6236 47.125C51.3887 46.7917 51.2713 46.3712 51.2713 45.8636V37.1818ZM60.0582 48.1818C59.2173 48.1818 58.492 47.9962 57.8821 47.625C57.276 47.25 56.8082 46.7273 56.4787 46.0568C56.1529 45.3826 55.9901 44.5985 55.9901 43.7045C55.9901 42.8106 56.1529 42.0227 56.4787 41.3409C56.8082 40.6553 57.2666 40.1212 57.8537 39.7386C58.4446 39.3523 59.134 39.1591 59.9219 39.1591C60.3764 39.1591 60.8253 39.2348 61.2685 39.3864C61.7116 39.5379 62.1151 39.7841 62.4787 40.125C62.8423 40.4621 63.1321 40.9091 63.348 41.4659C63.5639 42.0227 63.6719 42.7083 63.6719 43.5227V44.0909H56.9446V42.9318H62.3082C62.3082 42.4394 62.2098 42 62.0128 41.6136C61.8196 41.2273 61.5431 40.9223 61.1832 40.6989C60.8272 40.4754 60.4067 40.3636 59.9219 40.3636C59.3878 40.3636 58.9257 40.4962 58.5355 40.7614C58.1491 41.0227 57.8518 41.3636 57.6435 41.7841C57.4351 42.2045 57.331 42.6553 57.331 43.1364V43.9091C57.331 44.5682 57.4446 45.1269 57.6719 45.5852C57.9029 46.0398 58.223 46.3864 58.6321 46.625C59.0412 46.8598 59.5166 46.9773 60.0582 46.9773C60.4105 46.9773 60.7287 46.928 61.0128 46.8295C61.3007 46.7273 61.5488 46.5758 61.7571 46.375C61.9654 46.1705 62.1264 45.9167 62.2401 45.6136L63.5355 45.9773C63.3991 46.4167 63.17 46.803 62.848 47.1364C62.526 47.4659 62.1283 47.7235 61.6548 47.9091C61.1813 48.0909 60.6491 48.1818 60.0582 48.1818ZM67.0526 42.75V48H65.7116V39.2727H67.0071V40.6364H67.1207C67.3253 40.1932 67.6359 39.8371 68.0526 39.5682C68.4692 39.2955 69.0071 39.1591 69.6662 39.1591C70.2571 39.1591 70.7741 39.2803 71.2173 39.5227C71.6605 39.7614 72.0052 40.125 72.2514 40.6136C72.4976 41.0985 72.6207 41.7121 72.6207 42.4545V48H71.2798V42.5455C71.2798 41.8598 71.1018 41.3258 70.7457 40.9432C70.3897 40.5568 69.901 40.3636 69.2798 40.3636C68.8518 40.3636 68.4692 40.4564 68.1321 40.642C67.7988 40.8277 67.5355 41.0985 67.3423 41.4545C67.1491 41.8106 67.0526 42.2424 67.0526 42.75ZM78.8665 39.2727V40.4091H74.3438V39.2727H78.8665ZM75.6619 37.1818H77.0028V45.5C77.0028 45.8788 77.0578 46.1629 77.1676 46.3523C77.2813 46.5379 77.4252 46.6629 77.5994 46.7273C77.7775 46.7879 77.965 46.8182 78.1619 46.8182C78.3097 46.8182 78.4309 46.8106 78.5256 46.7955C78.6203 46.7765 78.696 46.7614 78.7528 46.75L79.0256 47.9545C78.9347 47.9886 78.8078 48.0227 78.6449 48.0568C78.482 48.0947 78.2756 48.1136 78.0256 48.1136C77.6468 48.1136 77.2756 48.0322 76.9119 47.8693C76.5521 47.7064 76.2528 47.4583 76.0142 47.125C75.7794 46.7917 75.6619 46.3712 75.6619 45.8636V37.1818ZM80.8835 48V39.2727H82.2244V48H80.8835ZM81.5653 37.8182C81.304 37.8182 81.0786 37.7292 80.8892 37.5511C80.7036 37.3731 80.6108 37.1591 80.6108 36.9091C80.6108 36.6591 80.7036 36.4451 80.8892 36.267C81.0786 36.089 81.304 36 81.5653 36C81.8267 36 82.0502 36.089 82.2358 36.267C82.4252 36.4451 82.5199 36.6591 82.5199 36.9091C82.5199 37.1591 82.4252 37.3731 82.2358 37.5511C82.0502 37.7292 81.8267 37.8182 81.5653 37.8182ZM88.2259 48.1818C87.438 48.1818 86.7467 47.9943 86.152 47.6193C85.5611 47.2443 85.099 46.7197 84.7656 46.0455C84.4361 45.3712 84.2713 44.5833 84.2713 43.6818C84.2713 42.7727 84.4361 41.9792 84.7656 41.3011C85.099 40.6231 85.5611 40.0966 86.152 39.7216C86.7467 39.3466 87.438 39.1591 88.2259 39.1591C89.0137 39.1591 89.7031 39.3466 90.294 39.7216C90.8887 40.0966 91.3509 40.6231 91.6804 41.3011C92.0137 41.9792 92.1804 42.7727 92.1804 43.6818C92.1804 44.5833 92.0137 45.3712 91.6804 46.0455C91.3509 46.7197 90.8887 47.2443 90.294 47.6193C89.7031 47.9943 89.0137 48.1818 88.2259 48.1818ZM88.2259 46.9773C88.8243 46.9773 89.3168 46.8239 89.7031 46.517C90.0895 46.2102 90.3755 45.8068 90.5611 45.3068C90.7467 44.8068 90.8395 44.2652 90.8395 43.6818C90.8395 43.0985 90.7467 42.5549 90.5611 42.0511C90.3755 41.5473 90.0895 41.1402 89.7031 40.8295C89.3168 40.5189 88.8243 40.3636 88.2259 40.3636C87.6274 40.3636 87.1349 40.5189 86.7486 40.8295C86.3622 41.1402 86.0762 41.5473 85.8906 42.0511C85.705 42.5549 85.6122 43.0985 85.6122 43.6818C85.6122 44.2652 85.705 44.8068 85.8906 45.3068C86.0762 45.8068 86.3622 46.2102 86.7486 46.517C87.1349 46.8239 87.6274 46.9773 88.2259 46.9773ZM95.5682 42.75V48H94.2273V39.2727H95.5227V40.6364H95.6364C95.8409 40.1932 96.1515 39.8371 96.5682 39.5682C96.9848 39.2955 97.5227 39.1591 98.1818 39.1591C98.7727 39.1591 99.2898 39.2803 99.733 39.5227C100.176 39.7614 100.521 40.125 100.767 40.6136C101.013 41.0985 101.136 41.7121 101.136 42.4545V48H99.7955V42.5455C99.7955 41.8598 99.6174 41.3258 99.2614 40.9432C98.9053 40.5568 98.4167 40.3636 97.7955 40.3636C97.3674 40.3636 96.9848 40.4564 96.6477 40.642C96.3144 40.8277 96.0511 41.0985 95.858 41.4545C95.6648 41.8106 95.5682 42.2424 95.5682 42.75Z" fill="#5F6980"/>
<path d="M39.3714 65.0909V84H35.946V68.424H35.8352L31.4126 71.2493V68.1101L36.1122 65.0909H39.3714ZM44.1726 84V81.5256L50.7372 75.0902C51.3651 74.4562 51.8883 73.893 52.3068 73.4006C52.7254 72.9081 53.0393 72.4311 53.2486 71.9695C53.4579 71.5078 53.5625 71.0154 53.5625 70.4922C53.5625 69.8951 53.4271 69.3842 53.1562 68.9595C52.8854 68.5286 52.513 68.1963 52.0391 67.9624C51.5651 67.7285 51.0265 67.6115 50.4233 67.6115C49.8016 67.6115 49.2569 67.7408 48.7891 67.9993C48.3213 68.2517 47.9581 68.6117 47.6996 69.0795C47.4472 69.5473 47.321 70.1044 47.321 70.7507H44.0618C44.0618 69.5504 44.3357 68.5071 44.8835 67.6207C45.4313 66.7344 46.1854 66.0481 47.1456 65.5618C48.112 65.0755 49.2199 64.8324 50.4695 64.8324C51.7375 64.8324 52.8516 65.0694 53.8118 65.5433C54.772 66.0173 55.5168 66.6667 56.0462 67.4915C56.5817 68.3163 56.8494 69.258 56.8494 70.3168C56.8494 71.0246 56.714 71.7202 56.4432 72.4034C56.1723 73.0866 55.6953 73.8437 55.0121 74.6747C54.335 75.5057 53.384 76.5121 52.1591 77.6939L48.8999 81.0085V81.1378H57.1357V84H44.1726ZM62.4169 84.2031C61.8568 84.2031 61.3767 84.0062 60.9766 83.6122C60.5765 83.2183 60.3795 82.7382 60.3857 82.1719C60.3795 81.6179 60.5765 81.1439 60.9766 80.75C61.3767 80.3561 61.8568 80.1591 62.4169 80.1591C62.9586 80.1591 63.4295 80.3561 63.8295 80.75C64.2358 81.1439 64.442 81.6179 64.4482 82.1719C64.442 82.5473 64.3435 82.889 64.1527 83.1967C63.968 83.5045 63.7218 83.7507 63.4141 83.9354C63.1125 84.1139 62.7801 84.2031 62.4169 84.2031ZM74.0504 84.2585C73.1456 84.2524 72.2623 84.0954 71.4006 83.7876C70.5388 83.4737 69.7633 82.9659 69.0739 82.2642C68.3845 81.5563 67.8366 80.6177 67.4304 79.4482C67.0241 78.2725 66.8241 76.8168 66.8303 75.081C66.8303 73.4621 67.0026 72.0187 67.3473 70.7507C67.692 69.4827 68.1875 68.4117 68.8338 67.5376C69.4801 66.6574 70.2588 65.9865 71.1697 65.5249C72.0869 65.0632 73.1117 64.8324 74.2443 64.8324C75.4323 64.8324 76.4848 65.0663 77.402 65.5341C78.3253 66.0019 79.0701 66.642 79.6364 67.4545C80.2027 68.2609 80.5535 69.1719 80.6889 70.1875H77.3189C77.1465 69.4612 76.7926 68.8826 76.2571 68.4517C75.7277 68.0147 75.0568 67.7962 74.2443 67.7962C72.9332 67.7962 71.9238 68.3655 71.2159 69.5043C70.5142 70.643 70.1603 72.2064 70.1541 74.1946H70.2834C70.585 73.6529 70.9759 73.1882 71.456 72.8004C71.9361 72.4126 72.4777 72.1141 73.081 71.9048C73.6903 71.6894 74.3336 71.5817 75.0107 71.5817C76.1186 71.5817 77.1127 71.8464 77.9929 72.3757C78.8793 72.9051 79.581 73.6345 80.098 74.5639C80.6151 75.4872 80.8705 76.5459 80.8643 77.7401C80.8705 78.9834 80.5874 80.1006 80.0149 81.0916C79.4425 82.0765 78.6454 82.852 77.6236 83.4183C76.6018 83.9846 75.4107 84.2647 74.0504 84.2585ZM74.032 81.4886C74.7029 81.4886 75.303 81.3255 75.8324 80.9993C76.3617 80.6731 76.7803 80.233 77.0881 79.679C77.3958 79.125 77.5466 78.5033 77.5405 77.8139C77.5466 77.1368 77.3989 76.5244 77.0973 75.9766C76.8018 75.4287 76.3925 74.9948 75.8693 74.6747C75.3461 74.3546 74.7491 74.1946 74.0781 74.1946C73.5795 74.1946 73.1148 74.29 72.6839 74.4808C72.2531 74.6716 71.8776 74.9363 71.5575 75.2749C71.2375 75.6072 70.9851 75.995 70.8004 76.4382C70.6219 76.8752 70.5296 77.343 70.5234 77.8416C70.5296 78.5002 70.6835 79.1065 70.9851 79.6605C71.2867 80.2145 71.7022 80.6577 72.2315 80.9901C72.7609 81.3224 73.361 81.4886 74.032 81.4886ZM84.6776 84L92.7195 68.0824V67.9531H83.3849V65.0909H96.2649V68.0178L88.2322 84H84.6776ZM109.355 80.4545V79.4574C109.355 78.7249 109.509 78.0509 109.817 77.4354C110.131 76.8198 110.586 76.3243 111.183 75.9489C111.78 75.5734 112.503 75.3857 113.353 75.3857C114.227 75.3857 114.959 75.5734 115.55 75.9489C116.141 76.3182 116.587 76.8106 116.889 77.4261C117.197 78.0417 117.351 78.7187 117.351 79.4574V80.4545C117.351 81.187 117.197 81.861 116.889 82.4766C116.581 83.0921 116.129 83.5876 115.532 83.9631C114.941 84.3385 114.215 84.5263 113.353 84.5263C112.491 84.5263 111.762 84.3385 111.165 83.9631C110.568 83.5876 110.115 83.0921 109.807 82.4766C109.506 81.861 109.355 81.187 109.355 80.4545ZM111.765 79.4574V80.4545C111.765 80.9408 111.882 81.3871 112.116 81.7933C112.349 82.1996 112.762 82.4027 113.353 82.4027C113.95 82.4027 114.359 82.2027 114.581 81.8026C114.809 81.3963 114.922 80.947 114.922 80.4545V79.4574C114.922 78.965 114.815 78.5156 114.599 78.1094C114.384 77.697 113.968 77.4908 113.353 77.4908C112.774 77.4908 112.365 77.697 112.125 78.1094C111.885 78.5156 111.765 78.965 111.765 79.4574ZM99.7434 69.6335V68.6364C99.7434 67.8977 99.9004 67.2206 100.214 66.6051C100.528 65.9896 100.984 65.4972 101.581 65.1278C102.178 64.7524 102.901 64.5646 103.751 64.5646C104.618 64.5646 105.348 64.7524 105.939 65.1278C106.536 65.4972 106.985 65.9896 107.287 66.6051C107.588 67.2206 107.739 67.8977 107.739 68.6364V69.6335C107.739 70.3722 107.585 71.0492 107.278 71.6648C106.976 72.2741 106.527 72.7635 105.93 73.1328C105.332 73.5021 104.606 73.6868 103.751 73.6868C102.883 73.6868 102.15 73.5021 101.553 73.1328C100.962 72.7635 100.513 72.2711 100.205 71.6555C99.8973 71.04 99.7434 70.366 99.7434 69.6335ZM102.172 68.6364V69.6335C102.172 70.1259 102.286 70.5753 102.513 70.9815C102.747 71.3816 103.16 71.5817 103.751 71.5817C104.341 71.5817 104.748 71.3816 104.969 70.9815C105.197 70.5753 105.311 70.1259 105.311 69.6335V68.6364C105.311 68.1439 105.203 67.6946 104.988 67.2884C104.772 66.8759 104.36 66.6697 103.751 66.6697C103.166 66.6697 102.756 66.8759 102.523 67.2884C102.289 67.7008 102.172 68.1501 102.172 68.6364ZM100.796 84L113.796 65.0909H116.104L103.104 84H100.796Z" fill="#282828"/>
<rect x="30" y="127" width="57" height="24" rx="12" fill="#DCFFF5"/>
<path d="M43.4739 141.602V135.705H44.812V141.602H43.4739ZM41.1941 139.322V137.984H47.0918V139.322H41.1941ZM52.1831 143.166C51.4814 143.166 50.8791 142.989 50.3762 142.634C49.8762 142.276 49.4913 141.76 49.2214 141.087C48.9544 140.411 48.8208 139.597 48.8208 138.645C48.8237 137.693 48.9586 136.884 49.2257 136.216C49.4956 135.545 49.8805 135.034 50.3805 134.682C50.8833 134.33 51.4842 134.153 52.1831 134.153C52.8819 134.153 53.4828 134.33 53.9856 134.682C54.4885 135.034 54.8734 135.545 55.1404 136.216C55.4103 136.886 55.5453 137.696 55.5453 138.645C55.5453 139.599 55.4103 140.415 55.1404 141.091C54.8734 141.764 54.4885 142.278 53.9856 142.634C53.4856 142.989 52.8848 143.166 52.1831 143.166ZM52.1831 141.832C52.7285 141.832 53.1589 141.564 53.4743 141.027C53.7924 140.487 53.9515 139.693 53.9515 138.645C53.9515 137.952 53.8791 137.369 53.7342 136.898C53.5893 136.426 53.3848 136.071 53.1206 135.832C52.8564 135.591 52.5439 135.47 52.1831 135.47C51.6404 135.47 51.2115 135.74 50.8961 136.28C50.5808 136.817 50.4217 137.605 50.4189 138.645C50.416 139.341 50.4856 139.926 50.6277 140.401C50.7725 140.875 50.9771 141.233 51.2413 141.474C51.5055 141.713 51.8194 141.832 52.1831 141.832ZM57.5886 143.094C57.3301 143.094 57.1085 143.003 56.9238 142.821C56.7392 142.639 56.6483 142.418 56.6511 142.156C56.6483 141.901 56.7392 141.682 56.9238 141.5C57.1085 141.318 57.3301 141.227 57.5886 141.227C57.8386 141.227 58.0559 141.318 58.2406 141.5C58.4281 141.682 58.5233 141.901 58.5261 142.156C58.5233 142.33 58.4778 142.487 58.3897 142.629C58.3045 142.771 58.1909 142.885 58.0488 142.97C57.9096 143.053 57.7562 143.094 57.5886 143.094ZM62.9579 143.119C62.5403 143.116 62.1326 143.044 61.7349 142.902C61.3372 142.757 60.9792 142.523 60.661 142.199C60.3429 141.872 60.09 141.439 59.9025 140.899C59.715 140.357 59.6227 139.685 59.6255 138.884C59.6255 138.136 59.7051 137.47 59.8642 136.885C60.0233 136.3 60.252 135.805 60.5502 135.402C60.8485 134.996 61.2079 134.686 61.6284 134.473C62.0517 134.26 62.5247 134.153 63.0474 134.153C63.5957 134.153 64.0815 134.261 64.5048 134.477C64.9309 134.693 65.2747 134.989 65.536 135.364C65.7974 135.736 65.9593 136.156 66.0218 136.625H64.4664C64.3869 136.29 64.2235 136.023 63.9764 135.824C63.7321 135.622 63.4224 135.521 63.0474 135.521C62.4423 135.521 61.9764 135.784 61.6497 136.31C61.3258 136.835 61.1625 137.557 61.1596 138.474H61.2193C61.3585 138.224 61.5389 138.01 61.7605 137.831C61.9821 137.652 62.2321 137.514 62.5105 137.418C62.7917 137.318 63.0886 137.268 63.4011 137.268C63.9125 137.268 64.3713 137.391 64.7775 137.635C65.1866 137.879 65.5105 138.216 65.7491 138.645C65.9877 139.071 66.1056 139.56 66.1028 140.111C66.1056 140.685 65.975 141.2 65.7108 141.658C65.4466 142.112 65.0787 142.47 64.6071 142.732C64.1355 142.993 63.5858 143.122 62.9579 143.119ZM62.9494 141.841C63.2591 141.841 63.536 141.766 63.7804 141.615C64.0247 141.464 64.2179 141.261 64.3599 141.006C64.502 140.75 64.5716 140.463 64.5687 140.145C64.5716 139.832 64.5034 139.55 64.3642 139.297C64.2278 139.044 64.0389 138.844 63.7974 138.696C63.5559 138.548 63.2804 138.474 62.9707 138.474C62.7406 138.474 62.5261 138.518 62.3272 138.607C62.1284 138.695 61.9551 138.817 61.8074 138.973C61.6596 139.126 61.5431 139.305 61.4579 139.51C61.3755 139.712 61.3329 139.928 61.3301 140.158C61.3329 140.462 61.4039 140.741 61.5431 140.997C61.6824 141.253 61.8741 141.457 62.1184 141.611C62.3627 141.764 62.6397 141.841 62.9494 141.841ZM72.2093 141.364V140.903C72.2093 140.565 72.2804 140.254 72.4224 139.97C72.5673 139.686 72.7775 139.457 73.0531 139.284C73.3287 139.111 73.6625 139.024 74.0545 139.024C74.4579 139.024 74.796 139.111 75.0687 139.284C75.3414 139.455 75.5474 139.682 75.6866 139.966C75.8287 140.25 75.8997 140.562 75.8997 140.903V141.364C75.8997 141.702 75.8287 142.013 75.6866 142.297C75.5446 142.581 75.3358 142.81 75.0602 142.983C74.7875 143.156 74.4522 143.243 74.0545 143.243C73.6568 143.243 73.3201 143.156 73.0446 142.983C72.769 142.81 72.5602 142.581 72.4181 142.297C72.2789 142.013 72.2093 141.702 72.2093 141.364ZM73.3216 140.903V141.364C73.3216 141.588 73.3755 141.794 73.4835 141.982C73.5914 142.169 73.7818 142.263 74.0545 142.263C74.3301 142.263 74.519 142.17 74.6213 141.986C74.7264 141.798 74.7789 141.591 74.7789 141.364V140.903C74.7789 140.676 74.7292 140.469 74.6298 140.281C74.5304 140.091 74.3386 139.996 74.0545 139.996C73.7875 139.996 73.5985 140.091 73.4877 140.281C73.377 140.469 73.3216 140.676 73.3216 140.903ZM67.7733 136.369V135.909C67.7733 135.568 67.8457 135.256 67.9906 134.972C68.1355 134.687 68.3457 134.46 68.6213 134.29C68.8968 134.116 69.2306 134.03 69.6227 134.03C70.0233 134.03 70.3599 134.116 70.6326 134.29C70.9082 134.46 71.1156 134.687 71.2548 134.972C71.394 135.256 71.4636 135.568 71.4636 135.909V136.369C71.4636 136.71 71.3926 137.023 71.2505 137.307C71.1113 137.588 70.9039 137.814 70.6284 137.984C70.3528 138.155 70.0176 138.24 69.6227 138.24C69.2221 138.24 68.8841 138.155 68.6085 137.984C68.3358 137.814 68.1284 137.587 67.9863 137.303C67.8443 137.018 67.7733 136.707 67.7733 136.369ZM68.894 135.909V136.369C68.894 136.597 68.9466 136.804 69.0517 136.991C69.1596 137.176 69.35 137.268 69.6227 137.268C69.8954 137.268 70.0829 137.176 70.1852 136.991C70.2903 136.804 70.3429 136.597 70.3429 136.369V135.909C70.3429 135.682 70.2931 135.474 70.1937 135.287C70.0943 135.097 69.9039 135.001 69.6227 135.001C69.3528 135.001 69.1639 135.097 69.0559 135.287C68.948 135.477 68.894 135.685 68.894 135.909ZM68.2591 143L74.2591 134.273H75.3244L69.3244 143H68.2591Z" fill="#20C997"/>
<path d="M95.8608 143V134.273H101.452V135.598H97.4418V137.967H101.068V139.293H97.4418V143H95.8608ZM102.73 143V136.455H104.226V137.545H104.294C104.413 137.168 104.618 136.876 104.908 136.672C105.2 136.464 105.534 136.361 105.909 136.361C105.994 136.361 106.089 136.365 106.195 136.374C106.303 136.379 106.392 136.389 106.463 136.403V137.822C106.398 137.8 106.294 137.78 106.152 137.763C106.013 137.743 105.878 137.733 105.747 137.733C105.466 137.733 105.213 137.794 104.989 137.916C104.767 138.036 104.592 138.202 104.464 138.415C104.337 138.628 104.273 138.874 104.273 139.152V143H102.73ZM110.074 143.128C109.434 143.128 108.88 142.987 108.412 142.706C107.943 142.425 107.579 142.031 107.321 141.526C107.065 141.02 106.937 140.429 106.937 139.753C106.937 139.077 107.065 138.484 107.321 137.976C107.579 137.467 107.943 137.072 108.412 136.791C108.88 136.51 109.434 136.369 110.074 136.369C110.713 136.369 111.267 136.51 111.735 136.791C112.204 137.072 112.566 137.467 112.822 137.976C113.081 138.484 113.21 139.077 113.21 139.753C113.21 140.429 113.081 141.02 112.822 141.526C112.566 142.031 112.204 142.425 111.735 142.706C111.267 142.987 110.713 143.128 110.074 143.128ZM110.082 141.892C110.429 141.892 110.718 141.797 110.951 141.607C111.184 141.413 111.358 141.155 111.471 140.831C111.588 140.507 111.646 140.146 111.646 139.749C111.646 139.348 111.588 138.986 111.471 138.662C111.358 138.335 111.184 138.075 110.951 137.882C110.718 137.689 110.429 137.592 110.082 137.592C109.727 137.592 109.431 137.689 109.196 137.882C108.963 138.075 108.788 138.335 108.672 138.662C108.558 138.986 108.501 139.348 108.501 139.749C108.501 140.146 108.558 140.507 108.672 140.831C108.788 141.155 108.963 141.413 109.196 141.607C109.431 141.797 109.727 141.892 110.082 141.892ZM114.519 143V136.455H115.994V137.567H116.07C116.207 137.192 116.433 136.899 116.748 136.689C117.063 136.476 117.44 136.369 117.877 136.369C118.32 136.369 118.694 136.477 118.998 136.693C119.305 136.906 119.521 137.197 119.646 137.567H119.714C119.859 137.203 120.103 136.913 120.447 136.697C120.793 136.479 121.204 136.369 121.678 136.369C122.281 136.369 122.772 136.56 123.153 136.94C123.533 137.321 123.724 137.876 123.724 138.607V143H122.177V138.845C122.177 138.439 122.069 138.142 121.853 137.955C121.637 137.764 121.373 137.669 121.06 137.669C120.688 137.669 120.397 137.786 120.187 138.018C119.979 138.249 119.876 138.548 119.876 138.918V143H118.363V138.781C118.363 138.443 118.261 138.173 118.056 137.972C117.854 137.77 117.59 137.669 117.263 137.669C117.042 137.669 116.84 137.726 116.658 137.839C116.477 137.95 116.332 138.108 116.224 138.312C116.116 138.514 116.062 138.75 116.062 139.02V143H114.519ZM128.091 141.381V140.124L131.794 134.273H132.842V136.062H132.203L129.71 140.013V140.081H134.879V141.381H128.091ZM132.254 143V140.997L132.271 140.435V134.273H133.762V143H132.254ZM136.962 143.094C136.703 143.094 136.482 143.003 136.297 142.821C136.112 142.639 136.021 142.418 136.024 142.156C136.021 141.901 136.112 141.682 136.297 141.5C136.482 141.318 136.703 141.227 136.962 141.227C137.212 141.227 137.429 141.318 137.614 141.5C137.801 141.682 137.896 141.901 137.899 142.156C137.896 142.33 137.851 142.487 137.763 142.629C137.678 142.771 137.564 142.885 137.422 142.97C137.283 143.053 137.129 143.094 136.962 143.094ZM142.331 143.119C141.913 143.116 141.506 143.044 141.108 142.902C140.71 142.757 140.352 142.523 140.034 142.199C139.716 141.872 139.463 141.439 139.276 140.899C139.088 140.357 138.996 139.685 138.999 138.884C138.999 138.136 139.078 137.47 139.237 136.885C139.396 136.3 139.625 135.805 139.923 135.402C140.222 134.996 140.581 134.686 141.001 134.473C141.425 134.26 141.898 134.153 142.42 134.153C142.969 134.153 143.455 134.261 143.878 134.477C144.304 134.693 144.648 134.989 144.909 135.364C145.17 135.736 145.332 136.156 145.395 136.625H143.839C143.76 136.29 143.597 136.023 143.349 135.824C143.105 135.622 142.795 135.521 142.42 135.521C141.815 135.521 141.349 135.784 141.023 136.31C140.699 136.835 140.536 137.557 140.533 138.474H140.592C140.732 138.224 140.912 138.01 141.134 137.831C141.355 137.652 141.605 137.514 141.884 137.418C142.165 137.318 142.462 137.268 142.774 137.268C143.286 137.268 143.744 137.391 144.151 137.635C144.56 137.879 144.884 138.216 145.122 138.645C145.361 139.071 145.479 139.56 145.476 140.111C145.479 140.685 145.348 141.2 145.084 141.658C144.82 142.112 144.452 142.47 143.98 142.732C143.509 142.993 142.959 143.122 142.331 143.119ZM142.322 141.841C142.632 141.841 142.909 141.766 143.153 141.615C143.398 141.464 143.591 141.261 143.733 141.006C143.875 140.75 143.945 140.463 143.942 140.145C143.945 139.832 143.876 139.55 143.737 139.297C143.601 139.044 143.412 138.844 143.17 138.696C142.929 138.548 142.653 138.474 142.344 138.474C142.114 138.474 141.899 138.518 141.7 138.607C141.501 138.695 141.328 138.817 141.18 138.973C141.033 139.126 140.916 139.305 140.831 139.51C140.749 139.712 140.706 139.928 140.703 140.158C140.706 140.462 140.777 140.741 140.916 140.997C141.055 141.253 141.247 141.457 141.491 141.611C141.736 141.764 142.013 141.841 142.322 141.841ZM151.582 141.364V140.903C151.582 140.565 151.653 140.254 151.795 139.97C151.94 139.686 152.151 139.457 152.426 139.284C152.702 139.111 153.036 139.024 153.428 139.024C153.831 139.024 154.169 139.111 154.442 139.284C154.714 139.455 154.92 139.682 155.06 139.966C155.202 140.25 155.273 140.562 155.273 140.903V141.364C155.273 141.702 155.202 142.013 155.06 142.297C154.918 142.581 154.709 142.81 154.433 142.983C154.161 143.156 153.825 143.243 153.428 143.243C153.03 143.243 152.693 143.156 152.418 142.983C152.142 142.81 151.933 142.581 151.791 142.297C151.652 142.013 151.582 141.702 151.582 141.364ZM152.695 140.903V141.364C152.695 141.588 152.749 141.794 152.857 141.982C152.964 142.169 153.155 142.263 153.428 142.263C153.703 142.263 153.892 142.17 153.994 141.986C154.099 141.798 154.152 141.591 154.152 141.364V140.903C154.152 140.676 154.102 140.469 154.003 140.281C153.903 140.091 153.712 139.996 153.428 139.996C153.161 139.996 152.972 140.091 152.861 140.281C152.75 140.469 152.695 140.676 152.695 140.903ZM147.146 136.369V135.909C147.146 135.568 147.219 135.256 147.364 134.972C147.509 134.687 147.719 134.46 147.994 134.29C148.27 134.116 148.604 134.03 148.996 134.03C149.396 134.03 149.733 134.116 150.006 134.29C150.281 134.46 150.489 134.687 150.628 134.972C150.767 135.256 150.837 135.568 150.837 135.909V136.369C150.837 136.71 150.766 137.023 150.624 137.307C150.484 137.588 150.277 137.814 150.001 137.984C149.726 138.155 149.391 138.24 148.996 138.24C148.595 138.24 148.257 138.155 147.982 137.984C147.709 137.814 147.501 137.587 147.359 137.303C147.217 137.018 147.146 136.707 147.146 136.369ZM148.267 135.909V136.369C148.267 136.597 148.32 136.804 148.425 136.991C148.533 137.176 148.723 137.268 148.996 137.268C149.268 137.268 149.456 137.176 149.558 136.991C149.663 136.804 149.716 136.597 149.716 136.369V135.909C149.716 135.682 149.666 135.474 149.567 135.287C149.467 135.097 149.277 135.001 148.996 135.001C148.726 135.001 148.537 135.097 148.429 135.287C148.321 135.477 148.267 135.685 148.267 135.909ZM147.632 143L153.632 134.273H154.697L148.697 143H147.632Z" fill="#9D9FA2"/>
</g>
<defs>
<filter id="filter0_d_1_258" x="0" y="0" width="282" height="182" filterUnits="userSpaceOnUse" color-interpolation-filters="sRGB">
<feFlood flood-opacity="0" result="BackgroundImageFix"/>
<feColorMatrix in="SourceAlpha" type="matrix" values="0 0 0 0 0 0 0 0 0 0 0 0 0 0 0 0 0 0 127 0" result="hardAlpha"/>
<feOffset dy="1"/>
<feGaussianBlur stdDeviation="5"/>
<feColorMatrix type="matrix" values="0 0 0 0 0 0 0 0 0 0 0 0 0 0 0 0 0 0 0.06 0"/>
<feBlend mode="normal" in2="BackgroundImageFix" result="effect1_dropShadow_1_258"/>
<feBlend mode="normal" in="SourceGraphic" in2="effect1_dropShadow_1_258" result="shape"/>
</filter>
</defs>
</svg>
