<svg width="282" height="182" viewBox="0 0 282 182" fill="none" xmlns="http://www.w3.org/2000/svg">
<g filter="url(#filter0_d_1_207)">
<rect x="10" y="9" width="262" height="162" rx="12" fill="white"/>
<path d="M31.4091 48V36.3636H35.3409C36.25 36.3636 36.9962 36.5189 37.5795 36.8295C38.1629 37.1364 38.5947 37.5587 38.875 38.0966C39.1553 38.6345 39.2955 39.2462 39.2955 39.9318C39.2955 40.6174 39.1553 41.2254 38.875 41.7557C38.5947 42.286 38.1648 42.7027 37.5852 43.0057C37.0057 43.3049 36.2652 43.4545 35.3636 43.4545H32.1818V42.1818H35.3182C35.9394 42.1818 36.4394 42.0909 36.8182 41.9091C37.2008 41.7273 37.4773 41.4697 37.6477 41.1364C37.822 40.7992 37.9091 40.3977 37.9091 39.9318C37.9091 39.4659 37.822 39.0587 37.6477 38.7102C37.4735 38.3617 37.1951 38.0928 36.8125 37.9034C36.4299 37.7102 35.9242 37.6136 35.2955 37.6136H32.8182V48H31.4091ZM36.8864 42.7727L39.75 48H38.1136L35.2955 42.7727H36.8864ZM45.027 48.1818C44.1861 48.1818 43.4607 47.9962 42.8509 47.625C42.2448 47.25 41.777 46.7273 41.4474 46.0568C41.1217 45.3826 40.9588 44.5985 40.9588 43.7045C40.9588 42.8106 41.1217 42.0227 41.4474 41.3409C41.777 40.6553 42.2353 40.1212 42.8224 39.7386C43.4134 39.3523 44.1027 39.1591 44.8906 39.1591C45.3452 39.1591 45.794 39.2348 46.2372 39.3864C46.6804 39.5379 47.0838 39.7841 47.4474 40.125C47.8111 40.4621 48.1009 40.9091 48.3168 41.4659C48.5327 42.0227 48.6406 42.7083 48.6406 43.5227V44.0909H41.9134V42.9318H47.277C47.277 42.4394 47.1785 42 46.9815 41.6136C46.7884 41.2273 46.5118 40.9223 46.152 40.6989C45.7959 40.4754 45.3755 40.3636 44.8906 40.3636C44.3565 40.3636 43.8944 40.4962 43.5043 40.7614C43.1179 41.0227 42.8205 41.3636 42.6122 41.7841C42.4039 42.2045 42.2997 42.6553 42.2997 43.1364V43.9091C42.2997 44.5682 42.4134 45.1269 42.6406 45.5852C42.8717 46.0398 43.1918 46.3864 43.6009 46.625C44.0099 46.8598 44.4853 46.9773 45.027 46.9773C45.3793 46.9773 45.6974 46.928 45.9815 46.8295C46.2694 46.7273 46.5175 46.5758 46.7259 46.375C46.9342 46.1705 47.0952 45.9167 47.2088 45.6136L48.5043 45.9773C48.3679 46.4167 48.1387 46.803 47.8168 47.1364C47.4948 47.4659 47.0971 47.7235 46.6236 47.9091C46.1501 48.0909 45.6179 48.1818 45.027 48.1818ZM57.5511 39.2727L54.3239 48H52.9602L49.733 39.2727H51.1875L53.5966 46.2273H53.6875L56.0966 39.2727H57.5511ZM62.6676 48.1818C61.8267 48.1818 61.1013 47.9962 60.4915 47.625C59.8854 47.25 59.4176 46.7273 59.0881 46.0568C58.7623 45.3826 58.5994 44.5985 58.5994 43.7045C58.5994 42.8106 58.7623 42.0227 59.0881 41.3409C59.4176 40.6553 59.8759 40.1212 60.4631 39.7386C61.054 39.3523 61.7434 39.1591 62.5312 39.1591C62.9858 39.1591 63.4347 39.2348 63.8778 39.3864C64.321 39.5379 64.7244 39.7841 65.0881 40.125C65.4517 40.4621 65.7415 40.9091 65.9574 41.4659C66.1733 42.0227 66.2812 42.7083 66.2812 43.5227V44.0909H59.554V42.9318H64.9176C64.9176 42.4394 64.8191 42 64.6222 41.6136C64.429 41.2273 64.1525 40.9223 63.7926 40.6989C63.4366 40.4754 63.0161 40.3636 62.5312 40.3636C61.9972 40.3636 61.535 40.4962 61.1449 40.7614C60.7585 41.0227 60.4612 41.3636 60.2528 41.7841C60.0445 42.2045 59.9403 42.6553 59.9403 43.1364V43.9091C59.9403 44.5682 60.054 45.1269 60.2812 45.5852C60.5123 46.0398 60.8324 46.3864 61.2415 46.625C61.6506 46.8598 62.1259 46.9773 62.6676 46.9773C63.0199 46.9773 63.3381 46.928 63.6222 46.8295C63.91 46.7273 64.1581 46.5758 64.3665 46.375C64.5748 46.1705 64.7358 45.9167 64.8494 45.6136L66.1449 45.9773C66.0085 46.4167 65.7794 46.803 65.4574 47.1364C65.1354 47.4659 64.7377 47.7235 64.2642 47.9091C63.7907 48.0909 63.2585 48.1818 62.6676 48.1818ZM69.6619 42.75V48H68.321V39.2727H69.6165V40.6364H69.7301C69.9347 40.1932 70.2453 39.8371 70.6619 39.5682C71.0786 39.2955 71.6165 39.1591 72.2756 39.1591C72.8665 39.1591 73.3835 39.2803 73.8267 39.5227C74.2699 39.7614 74.6146 40.125 74.8608 40.6136C75.107 41.0985 75.2301 41.7121 75.2301 42.4545V48H73.8892V42.5455C73.8892 41.8598 73.7112 41.3258 73.3551 40.9432C72.9991 40.5568 72.5104 40.3636 71.8892 40.3636C71.4612 40.3636 71.0786 40.4564 70.7415 40.642C70.4081 40.8277 70.1449 41.0985 69.9517 41.4545C69.7585 41.8106 69.6619 42.2424 69.6619 42.75ZM83.1804 44.4318V39.2727H84.5213V48H83.1804V46.5227H83.0895C82.8849 46.9659 82.5668 47.3428 82.1349 47.6534C81.7031 47.9602 81.1577 48.1136 80.4986 48.1136C79.9531 48.1136 79.4683 47.9943 79.044 47.7557C78.6198 47.5133 78.2865 47.1496 78.044 46.6648C77.8016 46.1761 77.6804 45.5606 77.6804 44.8182V39.2727H79.0213V44.7273C79.0213 45.3636 79.1993 45.8712 79.5554 46.25C79.9152 46.6288 80.3736 46.8182 80.9304 46.8182C81.2637 46.8182 81.6027 46.733 81.9474 46.5625C82.2959 46.392 82.5876 46.1307 82.8224 45.7784C83.0611 45.4261 83.1804 44.9773 83.1804 44.4318ZM90.6364 48.1818C89.7955 48.1818 89.0701 47.9962 88.4602 47.625C87.8542 47.25 87.3864 46.7273 87.0568 46.0568C86.7311 45.3826 86.5682 44.5985 86.5682 43.7045C86.5682 42.8106 86.7311 42.0227 87.0568 41.3409C87.3864 40.6553 87.8447 40.1212 88.4318 39.7386C89.0227 39.3523 89.7121 39.1591 90.5 39.1591C90.9545 39.1591 91.4034 39.2348 91.8466 39.3864C92.2898 39.5379 92.6932 39.7841 93.0568 40.125C93.4205 40.4621 93.7102 40.9091 93.9261 41.4659C94.142 42.0227 94.25 42.7083 94.25 43.5227V44.0909H87.5227V42.9318H92.8864C92.8864 42.4394 92.7879 42 92.5909 41.6136C92.3977 41.2273 92.1212 40.9223 91.7614 40.6989C91.4053 40.4754 90.9848 40.3636 90.5 40.3636C89.9659 40.3636 89.5038 40.4962 89.1136 40.7614C88.7273 41.0227 88.4299 41.3636 88.2216 41.7841C88.0133 42.2045 87.9091 42.6553 87.9091 43.1364V43.9091C87.9091 44.5682 88.0227 45.1269 88.25 45.5852C88.4811 46.0398 88.8011 46.3864 89.2102 46.625C89.6193 46.8598 90.0947 46.9773 90.6364 46.9773C90.9886 46.9773 91.3068 46.928 91.5909 46.8295C91.8788 46.7273 92.1269 46.5758 92.3352 46.375C92.5436 46.1705 92.7045 45.9167 92.8182 45.6136L94.1136 45.9773C93.9773 46.4167 93.7481 46.803 93.4261 47.1364C93.1042 47.4659 92.7064 47.7235 92.233 47.9091C91.7595 48.0909 91.2273 48.1818 90.6364 48.1818Z" fill="#5F6980"/>
<path d="M37.7741 86.3636V62.7273H39.2884V86.3636H37.7741ZM42.1413 70.2891C42.0552 69.4827 41.692 68.8549 41.0518 68.4055C40.4179 67.9562 39.593 67.7315 38.5774 67.7315C37.8634 67.7315 37.2509 67.8393 36.7401 68.0547C36.2292 68.2701 35.8383 68.5625 35.5675 68.9318C35.2966 69.3011 35.1581 69.7228 35.152 70.1967C35.152 70.5907 35.2412 70.9323 35.4197 71.2216C35.6044 71.5109 35.8537 71.7571 36.1676 71.9602C36.4815 72.1572 36.8293 72.3234 37.2109 72.4588C37.5926 72.5942 37.9773 72.7081 38.3651 72.8004L40.1378 73.2436C40.8518 73.4098 41.5381 73.6345 42.1967 73.9176C42.8615 74.2008 43.4555 74.5578 43.9787 74.9886C44.508 75.4195 44.9266 75.9396 45.2344 76.549C45.5421 77.1584 45.696 77.8724 45.696 78.6911C45.696 79.799 45.4129 80.7746 44.8466 81.6179C44.2803 82.455 43.4616 83.1106 42.3906 83.5845C41.3258 84.0523 40.0362 84.2862 38.522 84.2862C37.0509 84.2862 35.7737 84.0585 34.6903 83.603C33.6132 83.1475 32.7699 82.4827 32.1605 81.6087C31.5573 80.7346 31.2311 79.6697 31.1818 78.4141H34.5518C34.6011 79.0727 34.8042 79.6205 35.1612 80.0575C35.5182 80.4946 35.983 80.8208 36.5554 81.0362C37.134 81.2517 37.7803 81.3594 38.4943 81.3594C39.2391 81.3594 39.8916 81.2486 40.4517 81.027C41.018 80.7992 41.4612 80.4853 41.7812 80.0852C42.1013 79.679 42.2644 79.205 42.2706 78.6634C42.2644 78.1709 42.1198 77.7647 41.8366 77.4446C41.5535 77.1184 41.1565 76.8475 40.6456 76.6321C40.1409 76.4105 39.55 76.2135 38.8729 76.0412L36.7216 75.4872C35.1643 75.0871 33.9332 74.4808 33.0284 73.6683C32.1297 72.8497 31.6804 71.7633 31.6804 70.4091C31.6804 69.295 31.982 68.3194 32.5852 67.4822C33.1946 66.6451 34.0225 65.9957 35.0689 65.5341C36.1153 65.0663 37.3002 64.8324 38.6236 64.8324C39.9654 64.8324 41.1411 65.0663 42.1506 65.5341C43.1662 65.9957 43.9633 66.639 44.5419 67.4638C45.1205 68.2824 45.419 69.2242 45.4375 70.2891H42.1413ZM55.139 84.2585C53.908 84.2585 52.8062 84.0277 51.8336 83.5661C50.8611 83.0982 50.0886 82.4581 49.5162 81.6456C48.9499 80.8331 48.6483 79.9036 48.6113 78.8572H51.9352C51.9967 79.6328 52.3322 80.2668 52.9416 80.7592C53.551 81.2455 54.2834 81.4886 55.139 81.4886C55.81 81.4886 56.407 81.3348 56.9302 81.027C57.4534 80.7192 57.8658 80.2914 58.1674 79.7436C58.469 79.1958 58.6168 78.571 58.6106 77.8693C58.6168 77.1553 58.466 76.5213 58.1582 75.9673C57.8504 75.4134 57.4288 74.9794 56.8933 74.6655C56.3578 74.3454 55.7422 74.1854 55.0467 74.1854C54.4804 74.1792 53.9234 74.2839 53.3755 74.4993C52.8277 74.7147 52.3938 74.9979 52.0737 75.3487L48.9806 74.8409L49.9686 65.0909H60.9373V67.9531H52.8031L52.2583 72.9666H52.3691C52.72 72.5542 53.2155 72.2126 53.8556 71.9418C54.4958 71.6648 55.1975 71.5263 55.9608 71.5263C57.1056 71.5263 58.1274 71.7971 59.0261 72.3388C59.9248 72.8743 60.6326 73.6129 61.1497 74.5547C61.6667 75.4964 61.9252 76.5736 61.9252 77.7862C61.9252 79.0357 61.6359 80.1499 61.0574 81.1286C60.4849 82.1011 59.6878 82.8674 58.666 83.4276C57.6504 83.9815 56.4747 84.2585 55.139 84.2585ZM71.943 84.2585C71.0382 84.2524 70.1549 84.0954 69.2931 83.7876C68.4314 83.4737 67.6558 82.9659 66.9664 82.2642C66.277 81.5563 65.7292 80.6177 65.323 79.4482C64.9167 78.2725 64.7167 76.8168 64.7228 75.081C64.7228 73.4621 64.8952 72.0187 65.2399 70.7507C65.5846 69.4827 66.0801 68.4117 66.7264 67.5376C67.3727 66.6574 68.1513 65.9865 69.0623 65.5249C69.9795 65.0632 71.0043 64.8324 72.1369 64.8324C73.3249 64.8324 74.3774 65.0663 75.2946 65.5341C76.2179 66.0019 76.9627 66.642 77.5289 67.4545C78.0952 68.2609 78.4461 69.1719 78.5815 70.1875H75.2115C75.0391 69.4612 74.6852 68.8826 74.1497 68.4517C73.6203 68.0147 72.9494 67.7962 72.1369 67.7962C70.8258 67.7962 69.8163 68.3655 69.1085 69.5043C68.4068 70.643 68.0529 72.2064 68.0467 74.1946H68.176C68.4776 73.6529 68.8684 73.1882 69.3485 72.8004C69.8287 72.4126 70.3703 72.1141 70.9735 71.9048C71.5829 71.6894 72.2261 71.5817 72.9032 71.5817C74.0112 71.5817 75.0053 71.8464 75.8855 72.3757C76.7718 72.9051 77.4735 73.6345 77.9906 74.5639C78.5076 75.4872 78.7631 76.5459 78.7569 77.7401C78.7631 78.9834 78.4799 80.1006 77.9075 81.0916C77.335 82.0765 76.5379 82.852 75.5162 83.4183C74.4944 83.9846 73.3033 84.2647 71.943 84.2585ZM71.9245 81.4886C72.5955 81.4886 73.1956 81.3255 73.725 80.9993C74.2543 80.6731 74.6729 80.233 74.9806 79.679C75.2884 79.125 75.4392 78.5033 75.4331 77.8139C75.4392 77.1368 75.2915 76.5244 74.9899 75.9766C74.6944 75.4287 74.2851 74.9948 73.7619 74.6747C73.2387 74.3546 72.6416 74.1946 71.9707 74.1946C71.4721 74.1946 71.0074 74.29 70.5765 74.4808C70.1457 74.6716 69.7702 74.9363 69.4501 75.2749C69.13 75.6072 68.8777 75.995 68.693 76.4382C68.5145 76.8752 68.4222 77.343 68.416 77.8416C68.4222 78.5002 68.5761 79.1065 68.8777 79.6605C69.1793 80.2145 69.5948 80.6577 70.1241 80.9901C70.6535 81.3224 71.2536 81.4886 71.9245 81.4886ZM85.0261 81.4148L84.9061 82.4304C84.8199 83.206 84.666 83.9938 84.4444 84.794C84.229 85.6004 84.0012 86.3421 83.7612 87.0192C83.5211 87.6963 83.3272 88.2287 83.1795 88.6165H80.9267C81.0128 88.241 81.1298 87.7301 81.2775 87.0838C81.4314 86.4375 81.5791 85.7112 81.7207 84.9048C81.8623 84.0985 81.9577 83.2798 82.0069 82.4489L82.0716 81.4148H85.0261ZM95.0185 64.8324C95.9233 64.8385 96.8035 64.9986 97.6591 65.3125C98.5208 65.6203 99.2964 66.125 99.9858 66.8267C100.675 67.5223 101.223 68.4548 101.629 69.6243C102.036 70.7938 102.239 72.2403 102.239 73.9638C102.245 75.5888 102.072 77.0414 101.722 78.3217C101.377 79.5959 100.881 80.6731 100.235 81.5533C99.5888 82.4335 98.8101 83.1044 97.8991 83.5661C96.9882 84.0277 95.9633 84.2585 94.8246 84.2585C93.6304 84.2585 92.5717 84.0246 91.6484 83.5568C90.7313 83.089 89.9896 82.4489 89.4233 81.6364C88.857 80.8239 88.5092 79.8944 88.38 78.848H91.75C91.9223 79.599 92.2732 80.196 92.8026 80.6392C93.3381 81.0762 94.0121 81.2947 94.8246 81.2947C96.1357 81.2947 97.1451 80.7254 97.853 79.5866C98.5608 78.4479 98.9148 76.866 98.9148 74.8409H98.7855C98.4839 75.3826 98.093 75.8504 97.6129 76.2443C97.1328 76.6321 96.5881 76.9306 95.9787 77.1399C95.3755 77.3492 94.7353 77.4538 94.0582 77.4538C92.9503 77.4538 91.9531 77.1892 91.0668 76.6598C90.1866 76.1304 89.4879 75.4041 88.9709 74.4808C88.46 73.5575 88.2015 72.5019 88.1953 71.3139C88.1953 70.0829 88.4785 68.978 89.0447 67.9993C89.6172 67.0144 90.4143 66.2389 91.4361 65.6726C92.4579 65.1001 93.652 64.8201 95.0185 64.8324ZM95.0277 67.6023C94.3629 67.6023 93.7628 67.7654 93.2273 68.0916C92.6979 68.4117 92.2794 68.8487 91.9716 69.4027C91.67 69.9505 91.5192 70.563 91.5192 71.2401C91.5253 71.911 91.6761 72.5204 91.9716 73.0682C92.2732 73.616 92.6825 74.05 93.1996 74.37C93.7228 74.6901 94.3198 74.8501 94.9908 74.8501C95.4893 74.8501 95.9541 74.7547 96.3849 74.5639C96.8158 74.3731 97.1913 74.1084 97.5114 73.7699C97.8376 73.4252 98.09 73.0343 98.2685 72.5973C98.4531 72.1603 98.5424 71.6986 98.5362 71.2124C98.5362 70.5661 98.3823 69.969 98.0746 69.4212C97.773 68.8733 97.3575 68.4332 96.8281 68.1009C96.3049 67.7685 95.7048 67.6023 95.0277 67.6023ZM104.972 80.4915V77.7678L112.995 65.0909H115.266V68.9688H113.881L108.48 77.5277V77.6754H119.68V80.4915H104.972ZM113.992 84V79.6605L114.029 78.4418V65.0909H117.261V84H113.992ZM129.203 84.2585C127.972 84.2585 126.871 84.0277 125.898 83.5661C124.926 83.0982 124.153 82.4581 123.581 81.6456C123.014 80.8331 122.713 79.9036 122.676 78.8572H126C126.061 79.6328 126.397 80.2668 127.006 80.7592C127.615 81.2455 128.348 81.4886 129.203 81.4886C129.874 81.4886 130.471 81.3348 130.995 81.027C131.518 80.7192 131.93 80.2914 132.232 79.7436C132.533 79.1958 132.681 78.571 132.675 77.8693C132.681 77.1553 132.53 76.5213 132.223 75.9673C131.915 75.4134 131.493 74.9794 130.958 74.6655C130.422 74.3454 129.807 74.1854 129.111 74.1854C128.545 74.1792 127.988 74.2839 127.44 74.4993C126.892 74.7147 126.458 74.9979 126.138 75.3487L123.045 74.8409L124.033 65.0909H135.002V67.9531H126.868L126.323 72.9666H126.434C126.784 72.5542 127.28 72.2126 127.92 71.9418C128.56 71.6648 129.262 71.5263 130.025 71.5263C131.17 71.5263 132.192 71.7971 133.091 72.3388C133.989 72.8743 134.697 73.6129 135.214 74.5547C135.731 75.4964 135.99 76.5736 135.99 77.7862C135.99 79.0357 135.7 80.1499 135.122 81.1286C134.549 82.1011 133.752 82.8674 132.73 83.4276C131.715 83.9815 130.539 84.2585 129.203 84.2585Z" fill="#282828"/>
<rect x="30" y="127" width="54" height="24" rx="12" fill="#DCFFF5"/>
<path d="M43.4739 141.602V135.705H44.812V141.602H43.4739ZM41.1941 139.322V137.984H47.0918V139.322H41.1941ZM48.7995 141.381V140.124L52.5027 134.273H53.551V136.062H52.9118L50.4189 140.013V140.081H55.5879V141.381H48.7995ZM52.9629 143V140.997L52.9799 140.435V134.273H54.4714V143H52.9629ZM59.9835 143.119C59.4153 143.119 58.9068 143.013 58.4579 142.8C58.0091 142.584 57.6525 142.288 57.3883 141.913C57.127 141.538 56.9877 141.109 56.9707 140.626H58.5048C58.5332 140.984 58.688 141.277 58.9693 141.504C59.2505 141.729 59.5886 141.841 59.9835 141.841C60.2931 141.841 60.5687 141.77 60.8102 141.628C61.0517 141.486 61.242 141.288 61.3812 141.036C61.5204 140.783 61.5886 140.494 61.5858 140.17C61.5886 139.841 61.519 139.548 61.377 139.293C61.2349 139.037 61.0403 138.837 60.7931 138.692C60.546 138.544 60.2619 138.47 59.9409 138.47C59.6795 138.467 59.4224 138.516 59.1696 138.615C58.9167 138.714 58.7164 138.845 58.5687 139.007L57.1412 138.773L57.5971 134.273H62.6596V135.594H58.9054L58.6539 137.908H58.7051C58.867 137.717 59.0957 137.56 59.3912 137.435C59.6866 137.307 60.0105 137.243 60.3627 137.243C60.8912 137.243 61.3627 137.368 61.7775 137.618C62.1923 137.865 62.519 138.206 62.7576 138.641C62.9963 139.075 63.1156 139.572 63.1156 140.132C63.1156 140.709 62.9821 141.223 62.715 141.675C62.4508 142.124 62.0829 142.477 61.6113 142.736C61.1426 142.991 60.6 143.119 59.9835 143.119ZM69.2093 141.364V140.903C69.2093 140.565 69.2804 140.254 69.4224 139.97C69.5673 139.686 69.7775 139.457 70.0531 139.284C70.3287 139.111 70.6625 139.024 71.0545 139.024C71.4579 139.024 71.796 139.111 72.0687 139.284C72.3414 139.455 72.5474 139.682 72.6866 139.966C72.8287 140.25 72.8997 140.562 72.8997 140.903V141.364C72.8997 141.702 72.8287 142.013 72.6866 142.297C72.5446 142.581 72.3358 142.81 72.0602 142.983C71.7875 143.156 71.4522 143.243 71.0545 143.243C70.6568 143.243 70.3201 143.156 70.0446 142.983C69.769 142.81 69.5602 142.581 69.4181 142.297C69.2789 142.013 69.2093 141.702 69.2093 141.364ZM70.3216 140.903V141.364C70.3216 141.588 70.3755 141.794 70.4835 141.982C70.5914 142.169 70.7818 142.263 71.0545 142.263C71.3301 142.263 71.519 142.17 71.6213 141.986C71.7264 141.798 71.7789 141.591 71.7789 141.364V140.903C71.7789 140.676 71.7292 140.469 71.6298 140.281C71.5304 140.091 71.3386 139.996 71.0545 139.996C70.7875 139.996 70.5985 140.091 70.4877 140.281C70.377 140.469 70.3216 140.676 70.3216 140.903ZM64.7733 136.369V135.909C64.7733 135.568 64.8457 135.256 64.9906 134.972C65.1355 134.687 65.3457 134.46 65.6213 134.29C65.8968 134.116 66.2306 134.03 66.6227 134.03C67.0233 134.03 67.3599 134.116 67.6326 134.29C67.9082 134.46 68.1156 134.687 68.2548 134.972C68.394 135.256 68.4636 135.568 68.4636 135.909V136.369C68.4636 136.71 68.3926 137.023 68.2505 137.307C68.1113 137.588 67.9039 137.814 67.6284 137.984C67.3528 138.155 67.0176 138.24 66.6227 138.24C66.2221 138.24 65.8841 138.155 65.6085 137.984C65.3358 137.814 65.1284 137.587 64.9863 137.303C64.8443 137.018 64.7733 136.707 64.7733 136.369ZM65.894 135.909V136.369C65.894 136.597 65.9466 136.804 66.0517 136.991C66.1596 137.176 66.35 137.268 66.6227 137.268C66.8954 137.268 67.0829 137.176 67.1852 136.991C67.2903 136.804 67.3429 136.597 67.3429 136.369V135.909C67.3429 135.682 67.2931 135.474 67.1937 135.287C67.0943 135.097 66.9039 135.001 66.6227 135.001C66.3528 135.001 66.1639 135.097 66.0559 135.287C65.948 135.477 65.894 135.685 65.894 135.909ZM65.2591 143L71.2591 134.273H72.3244L66.3244 143H65.2591Z" fill="#20C997"/>
<path d="M92.8608 143V134.273H98.4517V135.598H94.4418V137.967H98.0682V139.293H94.4418V143H92.8608ZM99.7301 143V136.455H101.226V137.545H101.294C101.413 137.168 101.618 136.876 101.908 136.672C102.2 136.464 102.534 136.361 102.909 136.361C102.994 136.361 103.089 136.365 103.195 136.374C103.303 136.379 103.392 136.389 103.463 136.403V137.822C103.398 137.8 103.294 137.78 103.152 137.763C103.013 137.743 102.878 137.733 102.747 137.733C102.466 137.733 102.213 137.794 101.989 137.916C101.767 138.036 101.592 138.202 101.464 138.415C101.337 138.628 101.273 138.874 101.273 139.152V143H99.7301ZM107.074 143.128C106.434 143.128 105.88 142.987 105.412 142.706C104.943 142.425 104.579 142.031 104.321 141.526C104.065 141.02 103.937 140.429 103.937 139.753C103.937 139.077 104.065 138.484 104.321 137.976C104.579 137.467 104.943 137.072 105.412 136.791C105.88 136.51 106.434 136.369 107.074 136.369C107.713 136.369 108.267 136.51 108.735 136.791C109.204 137.072 109.566 137.467 109.822 137.976C110.081 138.484 110.21 139.077 110.21 139.753C110.21 140.429 110.081 141.02 109.822 141.526C109.566 142.031 109.204 142.425 108.735 142.706C108.267 142.987 107.713 143.128 107.074 143.128ZM107.082 141.892C107.429 141.892 107.718 141.797 107.951 141.607C108.184 141.413 108.358 141.155 108.471 140.831C108.588 140.507 108.646 140.146 108.646 139.749C108.646 139.348 108.588 138.986 108.471 138.662C108.358 138.335 108.184 138.075 107.951 137.882C107.718 137.689 107.429 137.592 107.082 137.592C106.727 137.592 106.431 137.689 106.196 137.882C105.963 138.075 105.788 138.335 105.672 138.662C105.558 138.986 105.501 139.348 105.501 139.749C105.501 140.146 105.558 140.507 105.672 140.831C105.788 141.155 105.963 141.413 106.196 141.607C106.431 141.797 106.727 141.892 107.082 141.892ZM111.519 143V136.455H112.994V137.567H113.07C113.207 137.192 113.433 136.899 113.748 136.689C114.063 136.476 114.44 136.369 114.877 136.369C115.32 136.369 115.694 136.477 115.998 136.693C116.305 136.906 116.521 137.197 116.646 137.567H116.714C116.859 137.203 117.103 136.913 117.447 136.697C117.793 136.479 118.204 136.369 118.678 136.369C119.281 136.369 119.772 136.56 120.153 136.94C120.533 137.321 120.724 137.876 120.724 138.607V143H119.177V138.845C119.177 138.439 119.069 138.142 118.853 137.955C118.637 137.764 118.373 137.669 118.06 137.669C117.688 137.669 117.397 137.786 117.187 138.018C116.979 138.249 116.876 138.548 116.876 138.918V143H115.363V138.781C115.363 138.443 115.261 138.173 115.056 137.972C114.854 137.77 114.59 137.669 114.263 137.669C114.042 137.669 113.84 137.726 113.658 137.839C113.477 137.95 113.332 138.108 113.224 138.312C113.116 138.514 113.062 138.75 113.062 139.02V143H111.519ZM125.091 141.381V140.124L128.794 134.273H129.842V136.062H129.203L126.71 140.013V140.081H131.879V141.381H125.091ZM129.254 143V140.997L129.271 140.435V134.273H130.762V143H129.254ZM133.962 143.094C133.703 143.094 133.482 143.003 133.297 142.821C133.112 142.639 133.021 142.418 133.024 142.156C133.021 141.901 133.112 141.682 133.297 141.5C133.482 141.318 133.703 141.227 133.962 141.227C134.212 141.227 134.429 141.318 134.614 141.5C134.801 141.682 134.896 141.901 134.899 142.156C134.896 142.33 134.851 142.487 134.763 142.629C134.678 142.771 134.564 142.885 134.422 142.97C134.283 143.053 134.129 143.094 133.962 143.094ZM139.331 143.119C138.913 143.116 138.506 143.044 138.108 142.902C137.71 142.757 137.352 142.523 137.034 142.199C136.716 141.872 136.463 141.439 136.276 140.899C136.088 140.357 135.996 139.685 135.999 138.884C135.999 138.136 136.078 137.47 136.237 136.885C136.396 136.3 136.625 135.805 136.923 135.402C137.222 134.996 137.581 134.686 138.001 134.473C138.425 134.26 138.898 134.153 139.42 134.153C139.969 134.153 140.455 134.261 140.878 134.477C141.304 134.693 141.648 134.989 141.909 135.364C142.17 135.736 142.332 136.156 142.395 136.625H140.839C140.76 136.29 140.597 136.023 140.349 135.824C140.105 135.622 139.795 135.521 139.42 135.521C138.815 135.521 138.349 135.784 138.023 136.31C137.699 136.835 137.536 137.557 137.533 138.474H137.592C137.732 138.224 137.912 138.01 138.134 137.831C138.355 137.652 138.605 137.514 138.884 137.418C139.165 137.318 139.462 137.268 139.774 137.268C140.286 137.268 140.744 137.391 141.151 137.635C141.56 137.879 141.884 138.216 142.122 138.645C142.361 139.071 142.479 139.56 142.476 140.111C142.479 140.685 142.348 141.2 142.084 141.658C141.82 142.112 141.452 142.47 140.98 142.732C140.509 142.993 139.959 143.122 139.331 143.119ZM139.322 141.841C139.632 141.841 139.909 141.766 140.153 141.615C140.398 141.464 140.591 141.261 140.733 141.006C140.875 140.75 140.945 140.463 140.942 140.145C140.945 139.832 140.876 139.55 140.737 139.297C140.601 139.044 140.412 138.844 140.17 138.696C139.929 138.548 139.653 138.474 139.344 138.474C139.114 138.474 138.899 138.518 138.7 138.607C138.501 138.695 138.328 138.817 138.18 138.973C138.033 139.126 137.916 139.305 137.831 139.51C137.749 139.712 137.706 139.928 137.703 140.158C137.706 140.462 137.777 140.741 137.916 140.997C138.055 141.253 138.247 141.457 138.491 141.611C138.736 141.764 139.013 141.841 139.322 141.841ZM148.582 141.364V140.903C148.582 140.565 148.653 140.254 148.795 139.97C148.94 139.686 149.151 139.457 149.426 139.284C149.702 139.111 150.036 139.024 150.428 139.024C150.831 139.024 151.169 139.111 151.442 139.284C151.714 139.455 151.92 139.682 152.06 139.966C152.202 140.25 152.273 140.562 152.273 140.903V141.364C152.273 141.702 152.202 142.013 152.06 142.297C151.918 142.581 151.709 142.81 151.433 142.983C151.161 143.156 150.825 143.243 150.428 143.243C150.03 143.243 149.693 143.156 149.418 142.983C149.142 142.81 148.933 142.581 148.791 142.297C148.652 142.013 148.582 141.702 148.582 141.364ZM149.695 140.903V141.364C149.695 141.588 149.749 141.794 149.857 141.982C149.964 142.169 150.155 142.263 150.428 142.263C150.703 142.263 150.892 142.17 150.994 141.986C151.099 141.798 151.152 141.591 151.152 141.364V140.903C151.152 140.676 151.102 140.469 151.003 140.281C150.903 140.091 150.712 139.996 150.428 139.996C150.161 139.996 149.972 140.091 149.861 140.281C149.75 140.469 149.695 140.676 149.695 140.903ZM144.146 136.369V135.909C144.146 135.568 144.219 135.256 144.364 134.972C144.509 134.687 144.719 134.46 144.994 134.29C145.27 134.116 145.604 134.03 145.996 134.03C146.396 134.03 146.733 134.116 147.006 134.29C147.281 134.46 147.489 134.687 147.628 134.972C147.767 135.256 147.837 135.568 147.837 135.909V136.369C147.837 136.71 147.766 137.023 147.624 137.307C147.484 137.588 147.277 137.814 147.001 137.984C146.726 138.155 146.391 138.24 145.996 138.24C145.595 138.24 145.257 138.155 144.982 137.984C144.709 137.814 144.501 137.587 144.359 137.303C144.217 137.018 144.146 136.707 144.146 136.369ZM145.267 135.909V136.369C145.267 136.597 145.32 136.804 145.425 136.991C145.533 137.176 145.723 137.268 145.996 137.268C146.268 137.268 146.456 137.176 146.558 136.991C146.663 136.804 146.716 136.597 146.716 136.369V135.909C146.716 135.682 146.666 135.474 146.567 135.287C146.467 135.097 146.277 135.001 145.996 135.001C145.726 135.001 145.537 135.097 145.429 135.287C145.321 135.477 145.267 135.685 145.267 135.909ZM144.632 143L150.632 134.273H151.697L145.697 143H144.632Z" fill="#9D9FA2"/>
</g>
<defs>
<filter id="filter0_d_1_207" x="0" y="0" width="282" height="182" filterUnits="userSpaceOnUse" color-interpolation-filters="sRGB">
<feFlood flood-opacity="0" result="BackgroundImageFix"/>
<feColorMatrix in="SourceAlpha" type="matrix" values="0 0 0 0 0 0 0 0 0 0 0 0 0 0 0 0 0 0 127 0" result="hardAlpha"/>
<feOffset dy="1"/>
<feGaussianBlur stdDeviation="5"/>
<feColorMatrix type="matrix" values="0 0 0 0 0 0 0 0 0 0 0 0 0 0 0 0 0 0 0.06 0"/>
<feBlend mode="normal" in2="BackgroundImageFix" result="effect1_dropShadow_1_207"/>
<feBlend mode="normal" in="SourceGraphic" in2="effect1_dropShadow_1_207" result="shape"/>
</filter>
</defs>
</svg>
