<svg width="282" height="182" viewBox="0 0 282 182" fill="none" xmlns="http://www.w3.org/2000/svg">
<g filter="url(#filter0_d_1_224)">
<rect x="10" y="9" width="262" height="162" rx="12" fill="white"/>
<path d="M39.0455 36.3636H40.4545V44.0682C40.4545 44.8636 40.267 45.5739 39.892 46.1989C39.5208 46.8201 38.9962 47.3106 38.3182 47.6705C37.6402 48.0265 36.8447 48.2045 35.9318 48.2045C35.0189 48.2045 34.2235 48.0265 33.5455 47.6705C32.8674 47.3106 32.3409 46.8201 31.9659 46.1989C31.5947 45.5739 31.4091 44.8636 31.4091 44.0682V36.3636H32.8182V43.9545C32.8182 44.5227 32.9432 45.0284 33.1932 45.4716C33.4432 45.911 33.7992 46.2576 34.2614 46.5114C34.7273 46.7614 35.2841 46.8864 35.9318 46.8864C36.5795 46.8864 37.1364 46.7614 37.6023 46.5114C38.0682 46.2576 38.4242 45.911 38.6705 45.4716C38.9205 45.0284 39.0455 44.5227 39.0455 43.9545V36.3636ZM49.2685 41.2273L48.0639 41.5682C47.9882 41.3674 47.8764 41.1723 47.7287 40.983C47.5848 40.7898 47.3878 40.6307 47.1378 40.5057C46.8878 40.3807 46.5677 40.3182 46.1776 40.3182C45.6435 40.3182 45.1984 40.4413 44.8423 40.6875C44.4901 40.9299 44.3139 41.2386 44.3139 41.6136C44.3139 41.947 44.4351 42.2102 44.6776 42.4034C44.92 42.5966 45.2988 42.7576 45.8139 42.8864L47.1094 43.2045C47.8897 43.3939 48.4711 43.6837 48.8537 44.0739C49.2363 44.4602 49.4276 44.9583 49.4276 45.5682C49.4276 46.0682 49.2836 46.5152 48.9957 46.9091C48.7116 47.303 48.3139 47.6136 47.8026 47.8409C47.2912 48.0682 46.6965 48.1818 46.0185 48.1818C45.1283 48.1818 44.3916 47.9886 43.8082 47.6023C43.2249 47.2159 42.8556 46.6515 42.7003 45.9091L43.973 45.5909C44.0942 46.0606 44.3234 46.4129 44.6605 46.6477C45.0014 46.8826 45.4465 47 45.9957 47C46.6207 47 47.117 46.8674 47.4844 46.6023C47.8556 46.3333 48.0412 46.0114 48.0412 45.6364C48.0412 45.3333 47.9351 45.0795 47.723 44.875C47.5109 44.6667 47.1851 44.5114 46.7457 44.4091L45.2912 44.0682C44.492 43.8788 43.9048 43.5852 43.5298 43.1875C43.1586 42.786 42.973 42.2841 42.973 41.6818C42.973 41.1894 43.1113 40.7538 43.3878 40.375C43.6681 39.9962 44.0488 39.6989 44.5298 39.483C45.0147 39.267 45.5639 39.1591 46.1776 39.1591C47.0412 39.1591 47.7192 39.3485 48.2116 39.7273C48.7079 40.1061 49.0601 40.6061 49.2685 41.2273ZM55.1051 48.1818C54.2642 48.1818 53.5388 47.9962 52.929 47.625C52.3229 47.25 51.8551 46.7273 51.5256 46.0568C51.1998 45.3826 51.0369 44.5985 51.0369 43.7045C51.0369 42.8106 51.1998 42.0227 51.5256 41.3409C51.8551 40.6553 52.3134 40.1212 52.9006 39.7386C53.4915 39.3523 54.1809 39.1591 54.9688 39.1591C55.4233 39.1591 55.8722 39.2348 56.3153 39.3864C56.7585 39.5379 57.1619 39.7841 57.5256 40.125C57.8892 40.4621 58.179 40.9091 58.3949 41.4659C58.6108 42.0227 58.7188 42.7083 58.7188 43.5227V44.0909H51.9915V42.9318H57.3551C57.3551 42.4394 57.2566 42 57.0597 41.6136C56.8665 41.2273 56.59 40.9223 56.2301 40.6989C55.8741 40.4754 55.4536 40.3636 54.9688 40.3636C54.4347 40.3636 53.9725 40.4962 53.5824 40.7614C53.196 41.0227 52.8987 41.3636 52.6903 41.7841C52.482 42.2045 52.3778 42.6553 52.3778 43.1364V43.9091C52.3778 44.5682 52.4915 45.1269 52.7188 45.5852C52.9498 46.0398 53.2699 46.3864 53.679 46.625C54.0881 46.8598 54.5634 46.9773 55.1051 46.9773C55.4574 46.9773 55.7756 46.928 56.0597 46.8295C56.3475 46.7273 56.5956 46.5758 56.804 46.375C57.0123 46.1705 57.1733 45.9167 57.2869 45.6136L58.5824 45.9773C58.446 46.4167 58.2169 46.803 57.8949 47.1364C57.5729 47.4659 57.1752 47.7235 56.7017 47.9091C56.2282 48.0909 55.696 48.1818 55.1051 48.1818ZM60.7585 48V39.2727H62.054V40.5909H62.1449C62.304 40.1591 62.5919 39.8087 63.0085 39.5398C63.4252 39.2708 63.8949 39.1364 64.4176 39.1364C64.5161 39.1364 64.6392 39.1383 64.7869 39.142C64.9347 39.1458 65.0464 39.1515 65.1222 39.1591V40.5227C65.0767 40.5114 64.9725 40.4943 64.8097 40.4716C64.6506 40.4451 64.482 40.4318 64.304 40.4318C63.8797 40.4318 63.5009 40.5208 63.1676 40.6989C62.8381 40.8731 62.5767 41.1155 62.3835 41.4261C62.1941 41.733 62.0994 42.0833 62.0994 42.4773V48H60.7585ZM72.8935 41.2273L71.6889 41.5682C71.6132 41.3674 71.5014 41.1723 71.3537 40.983C71.2098 40.7898 71.0128 40.6307 70.7628 40.5057C70.5128 40.3807 70.1927 40.3182 69.8026 40.3182C69.2685 40.3182 68.8234 40.4413 68.4673 40.6875C68.1151 40.9299 67.9389 41.2386 67.9389 41.6136C67.9389 41.947 68.0601 42.2102 68.3026 42.4034C68.545 42.5966 68.9238 42.7576 69.4389 42.8864L70.7344 43.2045C71.5147 43.3939 72.0961 43.6837 72.4787 44.0739C72.8613 44.4602 73.0526 44.9583 73.0526 45.5682C73.0526 46.0682 72.9086 46.5152 72.6207 46.9091C72.3366 47.303 71.9389 47.6136 71.4276 47.8409C70.9162 48.0682 70.3215 48.1818 69.6435 48.1818C68.7533 48.1818 68.0166 47.9886 67.4332 47.6023C66.8499 47.2159 66.4806 46.6515 66.3253 45.9091L67.598 45.5909C67.7192 46.0606 67.9484 46.4129 68.2855 46.6477C68.6264 46.8826 69.0715 47 69.6207 47C70.2457 47 70.742 46.8674 71.1094 46.6023C71.4806 46.3333 71.6662 46.0114 71.6662 45.6364C71.6662 45.3333 71.5601 45.0795 71.348 44.875C71.1359 44.6667 70.8101 44.5114 70.3707 44.4091L68.9162 44.0682C68.117 43.8788 67.5298 43.5852 67.1548 43.1875C66.7836 42.786 66.598 42.2841 66.598 41.6818C66.598 41.1894 66.7363 40.7538 67.0128 40.375C67.2931 39.9962 67.6738 39.6989 68.1548 39.483C68.6397 39.267 69.1889 39.1591 69.8026 39.1591C70.6662 39.1591 71.3442 39.3485 71.8366 39.7273C72.3329 40.1061 72.6851 40.6061 72.8935 41.2273Z" fill="#5F6980"/>
<path d="M32.3729 84L40.4148 68.0824V67.9531H31.0803V65.0909H43.9602V68.0178L35.9276 84H32.3729ZM53.4586 84.2585C52.5538 84.2524 51.6705 84.0954 50.8088 83.7876C49.947 83.4737 49.1715 82.9659 48.4821 82.2642C47.7927 81.5563 47.2449 80.6177 46.8386 79.4482C46.4324 78.2725 46.2323 76.8168 46.2385 75.081C46.2385 73.4621 46.4108 72.0187 46.7555 70.7507C47.1002 69.4827 47.5957 68.4117 48.242 67.5376C48.8883 66.6574 49.667 65.9865 50.5779 65.5249C51.4951 65.0632 52.5199 64.8324 53.6525 64.8324C54.8405 64.8324 55.8931 65.0663 56.8102 65.5341C57.7335 66.0019 58.4783 66.642 59.0446 67.4545C59.6109 68.2609 59.9617 69.1719 60.0971 70.1875H56.7271C56.5547 69.4612 56.2008 68.8826 55.6653 68.4517C55.1359 68.0147 54.465 67.7962 53.6525 67.7962C52.3414 67.7962 51.332 68.3655 50.6241 69.5043C49.9224 70.643 49.5685 72.2064 49.5623 74.1946H49.6916C49.9932 73.6529 50.3841 73.1882 50.8642 72.8004C51.3443 72.4126 51.8859 72.1141 52.4892 71.9048C53.0985 71.6894 53.7418 71.5817 54.4189 71.5817C55.5268 71.5817 56.5209 71.8464 57.4011 72.3757C58.2875 72.9051 58.9892 73.6345 59.5062 74.5639C60.0233 75.4872 60.2787 76.5459 60.2726 77.7401C60.2787 78.9834 59.9956 80.1006 59.4231 81.0916C58.8507 82.0765 58.0536 82.852 57.0318 83.4183C56.01 83.9846 54.819 84.2647 53.4586 84.2585ZM53.4402 81.4886C54.1111 81.4886 54.7112 81.3255 55.2406 80.9993C55.7699 80.6731 56.1885 80.233 56.4963 79.679C56.804 79.125 56.9548 78.5033 56.9487 77.8139C56.9548 77.1368 56.8071 76.5244 56.5055 75.9766C56.2101 75.4287 55.8007 74.9948 55.2775 74.6747C54.7543 74.3546 54.1573 74.1946 53.4863 74.1946C52.9877 74.1946 52.523 74.29 52.0922 74.4808C51.6613 74.6716 51.2858 74.9363 50.9657 75.2749C50.6457 75.6072 50.3933 75.995 50.2086 76.4382C50.0301 76.8752 49.9378 77.343 49.9316 77.8416C49.9378 78.5002 50.0917 79.1065 50.3933 79.6605C50.6949 80.2145 51.1104 80.6577 51.6397 80.9901C52.1691 81.3224 52.7692 81.4886 53.4402 81.4886ZM64.6767 84.2031C64.1165 84.2031 63.6364 84.0062 63.2363 83.6122C62.8362 83.2183 62.6393 82.7382 62.6454 82.1719C62.6393 81.6179 62.8362 81.1439 63.2363 80.75C63.6364 80.3561 64.1165 80.1591 64.6767 80.1591C65.2183 80.1591 65.6892 80.3561 66.0893 80.75C66.4956 81.1439 66.7018 81.6179 66.7079 82.1719C66.7018 82.5473 66.6033 82.889 66.4125 83.1967C66.2278 83.5045 65.9816 83.7507 65.6738 83.9354C65.3722 84.1139 65.0398 84.2031 64.6767 84.2031ZM76.1325 84.2585C74.7598 84.2585 73.5411 84.0277 72.4762 83.5661C71.4175 83.1044 70.5865 82.4735 69.9833 81.6733C69.3862 80.867 69.0908 79.9529 69.0969 78.9311C69.0908 78.1371 69.2631 77.4077 69.614 76.7429C69.9648 76.0781 70.4388 75.5241 71.0359 75.081C71.6391 74.6316 72.31 74.3454 73.0487 74.2223V74.093C72.0761 73.8776 71.2882 73.3821 70.685 72.6065C70.0879 71.8248 69.7925 70.9231 69.7987 69.9013C69.7925 68.9287 70.0633 68.0608 70.6112 67.2976C71.159 66.5343 71.9099 65.9342 72.864 65.4972C73.8181 65.054 74.9076 64.8324 76.1325 64.8324C77.3451 64.8324 78.4253 65.054 79.3732 65.4972C80.3273 65.9342 81.0782 66.5343 81.6261 67.2976C82.18 68.0608 82.457 68.9287 82.457 69.9013C82.457 70.9231 82.1523 71.8248 81.543 72.6065C80.9397 73.3821 80.1611 73.8776 79.207 74.093V74.2223C79.9457 74.3454 80.6104 74.6316 81.2013 75.081C81.7984 75.5241 82.2724 76.0781 82.6232 76.7429C82.9802 77.4077 83.1587 78.1371 83.1587 78.9311C83.1587 79.9529 82.8571 80.867 82.2539 81.6733C81.6507 82.4735 80.8197 83.1044 79.761 83.5661C78.7085 84.0277 77.4989 84.2585 76.1325 84.2585ZM76.1325 81.6179C76.8403 81.6179 77.4558 81.4979 77.979 81.2578C78.5022 81.0116 78.9085 80.6669 79.1978 80.2237C79.4871 79.7805 79.6348 79.2696 79.641 78.6911C79.6348 78.0878 79.4779 77.5554 79.1701 77.0938C78.8685 76.6259 78.453 76.2597 77.9237 75.995C77.4005 75.7304 76.8034 75.598 76.1325 75.598C75.4554 75.598 74.8522 75.7304 74.3228 75.995C73.7934 76.2597 73.3749 76.6259 73.0671 77.0938C72.7655 77.5554 72.6178 78.0878 72.6239 78.6911C72.6178 79.2696 72.7594 79.7805 73.0487 80.2237C73.3379 80.6607 73.7442 81.0024 74.2674 81.2486C74.7968 81.4948 75.4184 81.6179 76.1325 81.6179ZM76.1325 73.0036C76.7111 73.0036 77.2219 72.8866 77.6651 72.6527C78.1145 72.4188 78.4684 72.0926 78.7269 71.674C78.9854 71.2554 79.1178 70.7723 79.1239 70.2244C79.1178 69.6828 78.9885 69.2088 78.7362 68.8026C78.4838 68.3902 78.1329 68.0732 77.6836 67.8516C77.2343 67.6238 76.7172 67.5099 76.1325 67.5099C75.5354 67.5099 75.0091 67.6238 74.5536 67.8516C74.1043 68.0732 73.7534 68.3902 73.5011 68.8026C73.2549 69.2088 73.1348 69.6828 73.141 70.2244C73.1348 70.7723 73.2579 71.2554 73.5103 71.674C73.7688 72.0864 74.1228 72.4126 74.5721 72.6527C75.0276 72.8866 75.5477 73.0036 76.1325 73.0036ZM96.3042 80.4545V79.4574C96.3042 78.7249 96.458 78.0509 96.7658 77.4354C97.0797 76.8198 97.5352 76.3243 98.1323 75.9489C98.7293 75.5734 99.4526 75.3857 100.302 75.3857C101.176 75.3857 101.909 75.5734 102.499 75.9489C103.09 76.3182 103.537 76.8106 103.838 77.4261C104.146 78.0417 104.3 78.7187 104.3 79.4574V80.4545C104.3 81.187 104.146 81.861 103.838 82.4766C103.53 83.0921 103.078 83.5876 102.481 83.9631C101.89 84.3385 101.164 84.5263 100.302 84.5263C99.4403 84.5263 98.7109 84.3385 98.1138 83.9631C97.5167 83.5876 97.0643 83.0921 96.7566 82.4766C96.455 81.861 96.3042 81.187 96.3042 80.4545ZM98.714 79.4574V80.4545C98.714 80.9408 98.8309 81.3871 99.0648 81.7933C99.2987 82.1996 99.7111 82.4027 100.302 82.4027C100.899 82.4027 101.308 82.2027 101.53 81.8026C101.758 81.3963 101.872 80.947 101.872 80.4545V79.4574C101.872 78.965 101.764 78.5156 101.548 78.1094C101.333 77.697 100.918 77.4908 100.302 77.4908C99.7234 77.4908 99.3141 77.697 99.074 78.1094C98.834 78.5156 98.714 78.965 98.714 79.4574ZM86.6926 69.6335V68.6364C86.6926 67.8977 86.8496 67.2206 87.1635 66.6051C87.4775 65.9896 87.9329 65.4972 88.53 65.1278C89.1271 64.7524 89.8503 64.5646 90.6998 64.5646C91.5676 64.5646 92.2971 64.7524 92.888 65.1278C93.485 65.4972 93.9344 65.9896 94.236 66.6051C94.5376 67.2206 94.6884 67.8977 94.6884 68.6364V69.6335C94.6884 70.3722 94.5345 71.0492 94.2267 71.6648C93.9251 72.2741 93.4758 72.7635 92.8787 73.1328C92.2817 73.5021 91.5553 73.6868 90.6998 73.6868C89.8319 73.6868 89.0994 73.5021 88.5023 73.1328C87.9114 72.7635 87.4621 72.2711 87.1543 71.6555C86.8465 71.04 86.6926 70.366 86.6926 69.6335ZM89.1209 68.6364V69.6335C89.1209 70.1259 89.2348 70.5753 89.4625 70.9815C89.6964 71.3816 90.1088 71.5817 90.6998 71.5817C91.2907 71.5817 91.6969 71.3816 91.9185 70.9815C92.1462 70.5753 92.2601 70.1259 92.2601 69.6335V68.6364C92.2601 68.1439 92.1524 67.6946 91.937 67.2884C91.7215 66.8759 91.3091 66.6697 90.6998 66.6697C90.115 66.6697 89.7057 66.8759 89.4718 67.2884C89.2379 67.7008 89.1209 68.1501 89.1209 68.6364ZM87.7452 84L100.745 65.0909H103.053L90.0534 84H87.7452Z" fill="#282828"/>
<rect x="30" y="127" width="52" height="24" rx="12" fill="#FFE0E3"/>
<path d="M45.1388 138.001V139.271H41.2099V138.001H45.1388ZM50.294 134.273V143H48.7131V135.811H48.6619L46.6207 137.115V135.666L48.7898 134.273H50.294ZM52.9968 143.094C52.7383 143.094 52.5167 143.003 52.332 142.821C52.1474 142.639 52.0565 142.418 52.0593 142.156C52.0565 141.901 52.1474 141.682 52.332 141.5C52.5167 141.318 52.7383 141.227 52.9968 141.227C53.2468 141.227 53.4641 141.318 53.6488 141.5C53.8363 141.682 53.9315 141.901 53.9343 142.156C53.9315 142.33 53.886 142.487 53.7979 142.629C53.7127 142.771 53.5991 142.885 53.457 142.97C53.3178 143.053 53.1644 143.094 52.9968 143.094ZM55.5483 143L59.2599 135.653V135.594H54.9517V134.273H60.8963V135.624L57.1889 143H55.5483ZM66.9379 141.364V140.903C66.9379 140.565 67.0089 140.254 67.1509 139.97C67.2958 139.686 67.506 139.457 67.7816 139.284C68.0572 139.111 68.391 139.024 68.783 139.024C69.1864 139.024 69.5245 139.111 69.7972 139.284C70.07 139.455 70.2759 139.682 70.4151 139.966C70.5572 140.25 70.6282 140.562 70.6282 140.903V141.364C70.6282 141.702 70.5572 142.013 70.4151 142.297C70.2731 142.581 70.0643 142.81 69.7887 142.983C69.516 143.156 69.1808 143.243 68.783 143.243C68.3853 143.243 68.0487 143.156 67.7731 142.983C67.4975 142.81 67.2887 142.581 67.1467 142.297C67.0075 142.013 66.9379 141.702 66.9379 141.364ZM68.0501 140.903V141.364C68.0501 141.588 68.104 141.794 68.212 141.982C68.32 142.169 68.5103 142.263 68.783 142.263C69.0586 142.263 69.2475 142.17 69.3498 141.986C69.4549 141.798 69.5075 141.591 69.5075 141.364V140.903C69.5075 140.676 69.4577 140.469 69.3583 140.281C69.2589 140.091 69.0671 139.996 68.783 139.996C68.516 139.996 68.3271 140.091 68.2163 140.281C68.1055 140.469 68.0501 140.676 68.0501 140.903ZM62.5018 136.369V135.909C62.5018 135.568 62.5742 135.256 62.7191 134.972C62.864 134.687 63.0742 134.46 63.3498 134.29C63.6254 134.116 63.9592 134.03 64.3512 134.03C64.7518 134.03 65.0884 134.116 65.3612 134.29C65.6367 134.46 65.8441 134.687 65.9833 134.972C66.1225 135.256 66.1921 135.568 66.1921 135.909V136.369C66.1921 136.71 66.1211 137.023 65.979 137.307C65.8398 137.588 65.6325 137.814 65.3569 137.984C65.0813 138.155 64.7461 138.24 64.3512 138.24C63.9506 138.24 63.6126 138.155 63.337 137.984C63.0643 137.814 62.8569 137.587 62.7148 137.303C62.5728 137.018 62.5018 136.707 62.5018 136.369ZM63.6225 135.909V136.369C63.6225 136.597 63.6751 136.804 63.7802 136.991C63.8881 137.176 64.0785 137.268 64.3512 137.268C64.6239 137.268 64.8114 137.176 64.9137 136.991C65.0188 136.804 65.0714 136.597 65.0714 136.369V135.909C65.0714 135.682 65.0217 135.474 64.9222 135.287C64.8228 135.097 64.6325 135.001 64.3512 135.001C64.0813 135.001 63.8924 135.097 63.7844 135.287C63.6765 135.477 63.6225 135.685 63.6225 135.909ZM62.9876 143L68.9876 134.273H70.0529L64.0529 143H62.9876Z" fill="#DC3545"/>
<path d="M90.8608 143V134.273H96.4517V135.598H92.4418V137.967H96.0682V139.293H92.4418V143H90.8608ZM97.7301 143V136.455H99.2259V137.545H99.294C99.4134 137.168 99.6179 136.876 99.9077 136.672C100.2 136.464 100.534 136.361 100.909 136.361C100.994 136.361 101.089 136.365 101.195 136.374C101.303 136.379 101.392 136.389 101.463 136.403V137.822C101.398 137.8 101.294 137.78 101.152 137.763C101.013 137.743 100.878 137.733 100.747 137.733C100.466 137.733 100.213 137.794 99.9886 137.916C99.767 138.036 99.5923 138.202 99.4645 138.415C99.3366 138.628 99.2727 138.874 99.2727 139.152V143H97.7301ZM105.074 143.128C104.434 143.128 103.88 142.987 103.412 142.706C102.943 142.425 102.579 142.031 102.321 141.526C102.065 141.02 101.937 140.429 101.937 139.753C101.937 139.077 102.065 138.484 102.321 137.976C102.579 137.467 102.943 137.072 103.412 136.791C103.88 136.51 104.434 136.369 105.074 136.369C105.713 136.369 106.267 136.51 106.735 136.791C107.204 137.072 107.566 137.467 107.822 137.976C108.081 138.484 108.21 139.077 108.21 139.753C108.21 140.429 108.081 141.02 107.822 141.526C107.566 142.031 107.204 142.425 106.735 142.706C106.267 142.987 105.713 143.128 105.074 143.128ZM105.082 141.892C105.429 141.892 105.718 141.797 105.951 141.607C106.184 141.413 106.358 141.155 106.471 140.831C106.588 140.507 106.646 140.146 106.646 139.749C106.646 139.348 106.588 138.986 106.471 138.662C106.358 138.335 106.184 138.075 105.951 137.882C105.718 137.689 105.429 137.592 105.082 137.592C104.727 137.592 104.431 137.689 104.196 137.882C103.963 138.075 103.788 138.335 103.672 138.662C103.558 138.986 103.501 139.348 103.501 139.749C103.501 140.146 103.558 140.507 103.672 140.831C103.788 141.155 103.963 141.413 104.196 141.607C104.431 141.797 104.727 141.892 105.082 141.892ZM109.519 143V136.455H110.994V137.567H111.07C111.207 137.192 111.433 136.899 111.748 136.689C112.063 136.476 112.44 136.369 112.877 136.369C113.32 136.369 113.694 136.477 113.998 136.693C114.305 136.906 114.521 137.197 114.646 137.567H114.714C114.859 137.203 115.103 136.913 115.447 136.697C115.793 136.479 116.204 136.369 116.678 136.369C117.281 136.369 117.772 136.56 118.153 136.94C118.533 137.321 118.724 137.876 118.724 138.607V143H117.177V138.845C117.177 138.439 117.069 138.142 116.853 137.955C116.637 137.764 116.373 137.669 116.06 137.669C115.688 137.669 115.397 137.786 115.187 138.018C114.979 138.249 114.876 138.548 114.876 138.918V143H113.363V138.781C113.363 138.443 113.261 138.173 113.056 137.972C112.854 137.77 112.59 137.669 112.263 137.669C112.042 137.669 111.84 137.726 111.658 137.839C111.477 137.95 111.332 138.108 111.224 138.312C111.116 138.514 111.062 138.75 111.062 139.02V143H109.519ZM123.091 141.381V140.124L126.794 134.273H127.842V136.062H127.203L124.71 140.013V140.081H129.879V141.381H123.091ZM127.254 143V140.997L127.271 140.435V134.273H128.762V143H127.254ZM131.962 143.094C131.703 143.094 131.482 143.003 131.297 142.821C131.112 142.639 131.021 142.418 131.024 142.156C131.021 141.901 131.112 141.682 131.297 141.5C131.482 141.318 131.703 141.227 131.962 141.227C132.212 141.227 132.429 141.318 132.614 141.5C132.801 141.682 132.896 141.901 132.899 142.156C132.896 142.33 132.851 142.487 132.763 142.629C132.678 142.771 132.564 142.885 132.422 142.97C132.283 143.053 132.129 143.094 131.962 143.094ZM137.331 143.119C136.913 143.116 136.506 143.044 136.108 142.902C135.71 142.757 135.352 142.523 135.034 142.199C134.716 141.872 134.463 141.439 134.276 140.899C134.088 140.357 133.996 139.685 133.999 138.884C133.999 138.136 134.078 137.47 134.237 136.885C134.396 136.3 134.625 135.805 134.923 135.402C135.222 134.996 135.581 134.686 136.001 134.473C136.425 134.26 136.898 134.153 137.42 134.153C137.969 134.153 138.455 134.261 138.878 134.477C139.304 134.693 139.648 134.989 139.909 135.364C140.17 135.736 140.332 136.156 140.395 136.625H138.839C138.76 136.29 138.597 136.023 138.349 135.824C138.105 135.622 137.795 135.521 137.42 135.521C136.815 135.521 136.349 135.784 136.023 136.31C135.699 136.835 135.536 137.557 135.533 138.474H135.592C135.732 138.224 135.912 138.01 136.134 137.831C136.355 137.652 136.605 137.514 136.884 137.418C137.165 137.318 137.462 137.268 137.774 137.268C138.286 137.268 138.744 137.391 139.151 137.635C139.56 137.879 139.884 138.216 140.122 138.645C140.361 139.071 140.479 139.56 140.476 140.111C140.479 140.685 140.348 141.2 140.084 141.658C139.82 142.112 139.452 142.47 138.98 142.732C138.509 142.993 137.959 143.122 137.331 143.119ZM137.322 141.841C137.632 141.841 137.909 141.766 138.153 141.615C138.398 141.464 138.591 141.261 138.733 141.006C138.875 140.75 138.945 140.463 138.942 140.145C138.945 139.832 138.876 139.55 138.737 139.297C138.601 139.044 138.412 138.844 138.17 138.696C137.929 138.548 137.653 138.474 137.344 138.474C137.114 138.474 136.899 138.518 136.7 138.607C136.501 138.695 136.328 138.817 136.18 138.973C136.033 139.126 135.916 139.305 135.831 139.51C135.749 139.712 135.706 139.928 135.703 140.158C135.706 140.462 135.777 140.741 135.916 140.997C136.055 141.253 136.247 141.457 136.491 141.611C136.736 141.764 137.013 141.841 137.322 141.841ZM146.582 141.364V140.903C146.582 140.565 146.653 140.254 146.795 139.97C146.94 139.686 147.151 139.457 147.426 139.284C147.702 139.111 148.036 139.024 148.428 139.024C148.831 139.024 149.169 139.111 149.442 139.284C149.714 139.455 149.92 139.682 150.06 139.966C150.202 140.25 150.273 140.562 150.273 140.903V141.364C150.273 141.702 150.202 142.013 150.06 142.297C149.918 142.581 149.709 142.81 149.433 142.983C149.161 143.156 148.825 143.243 148.428 143.243C148.03 143.243 147.693 143.156 147.418 142.983C147.142 142.81 146.933 142.581 146.791 142.297C146.652 142.013 146.582 141.702 146.582 141.364ZM147.695 140.903V141.364C147.695 141.588 147.749 141.794 147.857 141.982C147.964 142.169 148.155 142.263 148.428 142.263C148.703 142.263 148.892 142.17 148.994 141.986C149.099 141.798 149.152 141.591 149.152 141.364V140.903C149.152 140.676 149.102 140.469 149.003 140.281C148.903 140.091 148.712 139.996 148.428 139.996C148.161 139.996 147.972 140.091 147.861 140.281C147.75 140.469 147.695 140.676 147.695 140.903ZM142.146 136.369V135.909C142.146 135.568 142.219 135.256 142.364 134.972C142.509 134.687 142.719 134.46 142.994 134.29C143.27 134.116 143.604 134.03 143.996 134.03C144.396 134.03 144.733 134.116 145.006 134.29C145.281 134.46 145.489 134.687 145.628 134.972C145.767 135.256 145.837 135.568 145.837 135.909V136.369C145.837 136.71 145.766 137.023 145.624 137.307C145.484 137.588 145.277 137.814 145.001 137.984C144.726 138.155 144.391 138.24 143.996 138.24C143.595 138.24 143.257 138.155 142.982 137.984C142.709 137.814 142.501 137.587 142.359 137.303C142.217 137.018 142.146 136.707 142.146 136.369ZM143.267 135.909V136.369C143.267 136.597 143.32 136.804 143.425 136.991C143.533 137.176 143.723 137.268 143.996 137.268C144.268 137.268 144.456 137.176 144.558 136.991C144.663 136.804 144.716 136.597 144.716 136.369V135.909C144.716 135.682 144.666 135.474 144.567 135.287C144.467 135.097 144.277 135.001 143.996 135.001C143.726 135.001 143.537 135.097 143.429 135.287C143.321 135.477 143.267 135.685 143.267 135.909ZM142.632 143L148.632 134.273H149.697L143.697 143H142.632Z" fill="#9D9FA2"/>
</g>
<defs>
<filter id="filter0_d_1_224" x="0" y="0" width="282" height="182" filterUnits="userSpaceOnUse" color-interpolation-filters="sRGB">
<feFlood flood-opacity="0" result="BackgroundImageFix"/>
<feColorMatrix in="SourceAlpha" type="matrix" values="0 0 0 0 0 0 0 0 0 0 0 0 0 0 0 0 0 0 127 0" result="hardAlpha"/>
<feOffset dy="1"/>
<feGaussianBlur stdDeviation="5"/>
<feColorMatrix type="matrix" values="0 0 0 0 0 0 0 0 0 0 0 0 0 0 0 0 0 0 0.06 0"/>
<feBlend mode="normal" in2="BackgroundImageFix" result="effect1_dropShadow_1_224"/>
<feBlend mode="normal" in="SourceGraphic" in2="effect1_dropShadow_1_224" result="shape"/>
</filter>
</defs>
</svg>
