<svg width="282" height="182" viewBox="0 0 282 182" fill="none" xmlns="http://www.w3.org/2000/svg">
<g filter="url(#filter0_d_1_241)">
<rect x="10" y="9" width="262" height="162" rx="12" fill="white"/>
<path d="M40.6364 36.3636V48H39.2727L32.9318 38.8636H32.8182V48H31.4091V36.3636H32.7727L39.1364 45.5227H39.25V36.3636H40.6364ZM46.9332 48.1818C46.0923 48.1818 45.367 47.9962 44.7571 47.625C44.151 47.25 43.6832 46.7273 43.3537 46.0568C43.0279 45.3826 42.8651 44.5985 42.8651 43.7045C42.8651 42.8106 43.0279 42.0227 43.3537 41.3409C43.6832 40.6553 44.1416 40.1212 44.7287 39.7386C45.3196 39.3523 46.009 39.1591 46.7969 39.1591C47.2514 39.1591 47.7003 39.2348 48.1435 39.3864C48.5866 39.5379 48.9901 39.7841 49.3537 40.125C49.7173 40.4621 50.0071 40.9091 50.223 41.4659C50.4389 42.0227 50.5469 42.7083 50.5469 43.5227V44.0909H43.8196V42.9318H49.1832C49.1832 42.4394 49.0848 42 48.8878 41.6136C48.6946 41.2273 48.4181 40.9223 48.0582 40.6989C47.7022 40.4754 47.2817 40.3636 46.7969 40.3636C46.2628 40.3636 45.8007 40.4962 45.4105 40.7614C45.0241 41.0227 44.7268 41.3636 44.5185 41.7841C44.3101 42.2045 44.206 42.6553 44.206 43.1364V43.9091C44.206 44.5682 44.3196 45.1269 44.5469 45.5852C44.7779 46.0398 45.098 46.3864 45.5071 46.625C45.9162 46.8598 46.3916 46.9773 46.9332 46.9773C47.2855 46.9773 47.6037 46.928 47.8878 46.8295C48.1757 46.7273 48.4238 46.5758 48.6321 46.375C48.8404 46.1705 49.0014 45.9167 49.1151 45.6136L50.4105 45.9773C50.2741 46.4167 50.045 46.803 49.723 47.1364C49.401 47.4659 49.0033 47.7235 48.5298 47.9091C48.0563 48.0909 47.5241 48.1818 46.9332 48.1818ZM54.5639 48L51.9048 39.2727H53.3139L55.2003 45.9545H55.2912L57.1548 39.2727H58.5866L60.4276 45.9318H60.5185L62.4048 39.2727H63.8139L61.1548 48H59.8366L57.9276 41.2955H57.7912L55.8821 48H54.5639ZM76.6321 39.2727C76.5639 38.697 76.2874 38.25 75.8026 37.9318C75.3177 37.6136 74.723 37.4545 74.0185 37.4545C73.5033 37.4545 73.0526 37.5379 72.6662 37.7045C72.2836 37.8712 71.9844 38.1004 71.7685 38.392C71.5563 38.6837 71.4503 39.0152 71.4503 39.3864C71.4503 39.697 71.5241 39.964 71.6719 40.1875C71.8234 40.4072 72.0166 40.5909 72.2514 40.7386C72.4863 40.8826 72.7325 41.0019 72.9901 41.0966C73.2476 41.1875 73.4844 41.2614 73.7003 41.3182L74.8821 41.6364C75.1851 41.7159 75.5223 41.8258 75.8935 41.9659C76.2685 42.1061 76.6264 42.2973 76.9673 42.5398C77.312 42.7784 77.5961 43.0852 77.8196 43.4602C78.0431 43.8352 78.1548 44.2955 78.1548 44.8409C78.1548 45.4697 77.9901 46.0379 77.6605 46.5455C77.3348 47.053 76.8575 47.4564 76.2287 47.7557C75.6037 48.0549 74.8442 48.2045 73.9503 48.2045C73.117 48.2045 72.3954 48.0701 71.7855 47.8011C71.1795 47.5322 70.7022 47.1572 70.3537 46.6761C70.009 46.1951 69.8139 45.6364 69.7685 45H71.223C71.2609 45.4394 71.4086 45.803 71.6662 46.0909C71.9276 46.375 72.2571 46.5871 72.6548 46.7273C73.0563 46.8636 73.4882 46.9318 73.9503 46.9318C74.4882 46.9318 74.9711 46.8447 75.3991 46.6705C75.8272 46.4924 76.1662 46.2462 76.4162 45.9318C76.6662 45.6136 76.7912 45.2424 76.7912 44.8182C76.7912 44.4318 76.6832 44.1174 76.4673 43.875C76.2514 43.6326 75.9673 43.4356 75.6151 43.2841C75.2628 43.1326 74.8821 43 74.473 42.8864L73.0412 42.4773C72.1321 42.2159 71.4124 41.8428 70.8821 41.358C70.3518 40.8731 70.0866 40.2386 70.0866 39.4545C70.0866 38.803 70.2628 38.2348 70.6151 37.75C70.9711 37.2614 71.4484 36.8826 72.0469 36.6136C72.6491 36.3409 73.3215 36.2045 74.0639 36.2045C74.8139 36.2045 75.4806 36.339 76.0639 36.608C76.6473 36.8731 77.1094 37.2367 77.4503 37.6989C77.795 38.161 77.9768 38.6856 77.9957 39.2727H76.6321ZM80.2898 48V39.2727H81.6307V48H80.2898ZM80.9716 37.8182C80.7102 37.8182 80.4848 37.7292 80.2955 37.5511C80.1098 37.3731 80.017 37.1591 80.017 36.9091C80.017 36.6591 80.1098 36.4451 80.2955 36.267C80.4848 36.089 80.7102 36 80.9716 36C81.233 36 81.4564 36.089 81.642 36.267C81.8314 36.4451 81.9261 36.6591 81.9261 36.9091C81.9261 37.1591 81.8314 37.3731 81.642 37.5511C81.4564 37.7292 81.233 37.8182 80.9716 37.8182ZM87.6094 51.4545C86.9616 51.4545 86.4048 51.3712 85.9389 51.2045C85.473 51.0417 85.0848 50.8258 84.7741 50.5568C84.4673 50.2917 84.223 50.0076 84.0412 49.7045L85.1094 48.9545C85.2306 49.1136 85.384 49.2955 85.5696 49.5C85.7552 49.7083 86.009 49.8883 86.331 50.0398C86.6567 50.1951 87.0829 50.2727 87.6094 50.2727C88.3139 50.2727 88.8954 50.1023 89.3537 49.7614C89.812 49.4205 90.0412 48.8864 90.0412 48.1591V46.3864H89.9276C89.8291 46.5455 89.6889 46.7424 89.5071 46.9773C89.3291 47.2083 89.0715 47.4148 88.7344 47.5966C88.401 47.7746 87.9503 47.8636 87.3821 47.8636C86.6776 47.8636 86.045 47.697 85.4844 47.3636C84.9276 47.0303 84.4863 46.5455 84.1605 45.9091C83.8385 45.2727 83.6776 44.5 83.6776 43.5909C83.6776 42.697 83.8348 41.9186 84.1491 41.2557C84.4635 40.589 84.901 40.0739 85.4616 39.7102C86.0223 39.3428 86.67 39.1591 87.4048 39.1591C87.973 39.1591 88.4238 39.2538 88.7571 39.4432C89.0942 39.6288 89.3518 39.8409 89.5298 40.0795C89.7116 40.3144 89.8518 40.5076 89.9503 40.6591H90.0866V39.2727H91.3821V48.25C91.3821 49 91.2116 49.6098 90.8707 50.0795C90.5336 50.553 90.0791 50.8996 89.5071 51.1193C88.9389 51.3428 88.3063 51.4545 87.6094 51.4545ZM87.5639 46.6591C88.1018 46.6591 88.5563 46.536 88.9276 46.2898C89.2988 46.0436 89.581 45.6894 89.7741 45.2273C89.9673 44.7652 90.0639 44.2121 90.0639 43.5682C90.0639 42.9394 89.9692 42.3845 89.7798 41.9034C89.5904 41.4223 89.3101 41.0455 88.9389 40.7727C88.5677 40.5 88.1094 40.3636 87.5639 40.3636C86.9957 40.3636 86.5223 40.5076 86.1435 40.7955C85.7685 41.0833 85.4863 41.4697 85.2969 41.9545C85.1113 42.4394 85.0185 42.9773 85.0185 43.5682C85.0185 44.1742 85.1132 44.7102 85.3026 45.1761C85.4957 45.6383 85.7798 46.0019 86.1548 46.267C86.5336 46.5284 87.0033 46.6591 87.5639 46.6591ZM95.1776 42.75V48H93.8366V39.2727H95.1321V40.6364H95.2457C95.4503 40.1932 95.7609 39.8371 96.1776 39.5682C96.5942 39.2955 97.1321 39.1591 97.7912 39.1591C98.3821 39.1591 98.8991 39.2803 99.3423 39.5227C99.7855 39.7614 100.13 40.125 100.376 40.6136C100.623 41.0985 100.746 41.7121 100.746 42.4545V48H99.4048V42.5455C99.4048 41.8598 99.2268 41.3258 98.8707 40.9432C98.5147 40.5568 98.026 40.3636 97.4048 40.3636C96.9768 40.3636 96.5942 40.4564 96.2571 40.642C95.9238 40.8277 95.6605 41.0985 95.4673 41.4545C95.2741 41.8106 95.1776 42.2424 95.1776 42.75ZM108.696 44.4318V39.2727H110.037V48H108.696V46.5227H108.605C108.401 46.9659 108.082 47.3428 107.651 47.6534C107.219 47.9602 106.673 48.1136 106.014 48.1136C105.469 48.1136 104.984 47.9943 104.56 47.7557C104.135 47.5133 103.802 47.1496 103.56 46.6648C103.317 46.1761 103.196 45.5606 103.196 44.8182V39.2727H104.537V44.7273C104.537 45.3636 104.715 45.8712 105.071 46.25C105.431 46.6288 105.889 46.8182 106.446 46.8182C106.779 46.8182 107.118 46.733 107.463 46.5625C107.812 46.392 108.103 46.1307 108.338 45.7784C108.577 45.4261 108.696 44.9773 108.696 44.4318ZM112.493 51.2727V39.2727H113.788V40.6591H113.947C114.046 40.5076 114.182 40.3144 114.357 40.0795C114.535 39.8409 114.788 39.6288 115.118 39.4432C115.451 39.2538 115.902 39.1591 116.47 39.1591C117.205 39.1591 117.853 39.3428 118.413 39.7102C118.974 40.0777 119.411 40.5985 119.726 41.2727C120.04 41.947 120.197 42.7424 120.197 43.6591C120.197 44.5833 120.04 45.3845 119.726 46.0625C119.411 46.7367 118.976 47.2595 118.419 47.6307C117.862 47.9981 117.22 48.1818 116.493 48.1818C115.932 48.1818 115.483 48.089 115.146 47.9034C114.809 47.714 114.55 47.5 114.368 47.2614C114.186 47.0189 114.046 46.8182 113.947 46.6591H113.834V51.2727H112.493ZM113.811 43.6364C113.811 44.2955 113.908 44.8769 114.101 45.3807C114.294 45.8807 114.576 46.2727 114.947 46.5568C115.319 46.8371 115.773 46.9773 116.311 46.9773C116.872 46.9773 117.339 46.8295 117.714 46.5341C118.093 46.2348 118.377 45.8333 118.567 45.3295C118.76 44.822 118.857 44.2576 118.857 43.6364C118.857 43.0227 118.762 42.4697 118.572 41.9773C118.387 41.4811 118.105 41.089 117.726 40.8011C117.351 40.5095 116.879 40.3636 116.311 40.3636C115.766 40.3636 115.307 40.5019 114.936 40.7784C114.565 41.0511 114.285 41.4337 114.095 41.9261C113.906 42.4148 113.811 42.9848 113.811 43.6364ZM128.425 41.2273L127.22 41.5682C127.144 41.3674 127.033 41.1723 126.885 40.983C126.741 40.7898 126.544 40.6307 126.294 40.5057C126.044 40.3807 125.724 40.3182 125.334 40.3182C124.8 40.3182 124.355 40.4413 123.999 40.6875C123.646 40.9299 123.47 41.2386 123.47 41.6136C123.47 41.947 123.591 42.2102 123.834 42.4034C124.076 42.5966 124.455 42.7576 124.97 42.8864L126.266 43.2045C127.046 43.3939 127.627 43.6837 128.01 44.0739C128.393 44.4602 128.584 44.9583 128.584 45.5682C128.584 46.0682 128.44 46.5152 128.152 46.9091C127.868 47.303 127.47 47.6136 126.959 47.8409C126.447 48.0682 125.853 48.1818 125.175 48.1818C124.285 48.1818 123.548 47.9886 122.964 47.6023C122.381 47.2159 122.012 46.6515 121.857 45.9091L123.129 45.5909C123.25 46.0606 123.48 46.4129 123.817 46.6477C124.158 46.8826 124.603 47 125.152 47C125.777 47 126.273 46.8674 126.641 46.6023C127.012 46.3333 127.197 46.0114 127.197 45.6364C127.197 45.3333 127.091 45.0795 126.879 44.875C126.667 44.6667 126.341 44.5114 125.902 44.4091L124.447 44.0682C123.648 43.8788 123.061 43.5852 122.686 43.1875C122.315 42.786 122.129 42.2841 122.129 41.6818C122.129 41.1894 122.268 40.7538 122.544 40.375C122.824 39.9962 123.205 39.6989 123.686 39.483C124.171 39.267 124.72 39.1591 125.334 39.1591C126.197 39.1591 126.875 39.3485 127.368 39.7273C127.864 40.1061 128.216 40.6061 128.425 41.2273Z" fill="#5F6980"/>
<path d="M39.3714 65.0909V84H35.946V68.424H35.8352L31.4126 71.2493V68.1101L36.1122 65.0909H39.3714ZM51.8636 65.0909V84H48.4382V68.424H48.3274L43.9048 71.2493V68.1101L48.6044 65.0909H51.8636ZM63.5895 84.2585C62.6847 84.2524 61.8014 84.0954 60.9396 83.7876C60.0779 83.4737 59.3023 82.9659 58.6129 82.2642C57.9235 81.5563 57.3757 80.6177 56.9695 79.4482C56.5632 78.2725 56.3632 76.8168 56.3693 75.081C56.3693 73.4621 56.5417 72.0187 56.8864 70.7507C57.2311 69.4827 57.7266 68.4117 58.3729 67.5376C59.0192 66.6574 59.7978 65.9865 60.7088 65.5249C61.6259 65.0632 62.6508 64.8324 63.7834 64.8324C64.9714 64.8324 66.0239 65.0663 66.9411 65.5341C67.8643 66.0019 68.6091 66.642 69.1754 67.4545C69.7417 68.2609 70.0926 69.1719 70.228 70.1875H66.858C66.6856 69.4612 66.3317 68.8826 65.7962 68.4517C65.2668 68.0147 64.5959 67.7962 63.7834 67.7962C62.4723 67.7962 61.4628 68.3655 60.755 69.5043C60.0533 70.643 59.6993 72.2064 59.6932 74.1946H59.8224C60.1241 73.6529 60.5149 73.1882 60.995 72.8004C61.4751 72.4126 62.0168 72.1141 62.62 71.9048C63.2294 71.6894 63.8726 71.5817 64.5497 71.5817C65.6577 71.5817 66.6518 71.8464 67.532 72.3757C68.4183 72.9051 69.12 73.6345 69.6371 74.5639C70.1541 75.4872 70.4096 76.5459 70.4034 77.7401C70.4096 78.9834 70.1264 80.1006 69.554 81.0916C68.9815 82.0765 68.1844 82.852 67.1626 83.4183C66.1409 83.9846 64.9498 84.2647 63.5895 84.2585ZM63.571 81.4886C64.242 81.4886 64.8421 81.3255 65.3714 80.9993C65.9008 80.6731 66.3194 80.233 66.6271 79.679C66.9349 79.125 67.0857 78.5033 67.0795 77.8139C67.0857 77.1368 66.938 76.5244 66.6364 75.9766C66.3409 75.4287 65.9316 74.9948 65.4084 74.6747C64.8852 74.3546 64.2881 74.1946 63.6172 74.1946C63.1186 74.1946 62.6539 74.29 62.223 74.4808C61.7921 74.6716 61.4167 74.9363 61.0966 75.2749C60.7765 75.6072 60.5241 75.995 60.3395 76.4382C60.161 76.8752 60.0687 77.343 60.0625 77.8416C60.0687 78.5002 60.2225 79.1065 60.5241 79.6605C60.8258 80.2145 61.2412 80.6577 61.7706 80.9901C62.3 81.3224 62.9001 81.4886 63.571 81.4886Z" fill="#282828"/>
<rect x="30" y="127" width="47" height="24" rx="12" fill="#F2F4F7"/>
<path d="M44.0952 143.166C43.3935 143.166 42.7912 142.989 42.2884 142.634C41.7884 142.276 41.4034 141.76 41.1335 141.087C40.8665 140.411 40.733 139.597 40.733 138.645C40.7358 137.693 40.8707 136.884 41.1378 136.216C41.4077 135.545 41.7926 135.034 42.2926 134.682C42.7955 134.33 43.3963 134.153 44.0952 134.153C44.794 134.153 45.3949 134.33 45.8977 134.682C46.4006 135.034 46.7855 135.545 47.0526 136.216C47.3224 136.886 47.4574 137.696 47.4574 138.645C47.4574 139.599 47.3224 140.415 47.0526 141.091C46.7855 141.764 46.4006 142.278 45.8977 142.634C45.3977 142.989 44.7969 143.166 44.0952 143.166ZM44.0952 141.832C44.6406 141.832 45.071 141.564 45.3864 141.027C45.7045 140.487 45.8636 139.693 45.8636 138.645C45.8636 137.952 45.7912 137.369 45.6463 136.898C45.5014 136.426 45.2969 136.071 45.0327 135.832C44.7685 135.591 44.456 135.47 44.0952 135.47C43.5526 135.47 43.1236 135.74 42.8082 136.28C42.4929 136.817 42.3338 137.605 42.331 138.645C42.3281 139.341 42.3977 139.926 42.5398 140.401C42.6847 140.875 42.8892 141.233 43.1534 141.474C43.4176 141.713 43.7315 141.832 44.0952 141.832ZM49.5007 143.094C49.2422 143.094 49.0206 143.003 48.8359 142.821C48.6513 142.639 48.5604 142.418 48.5632 142.156C48.5604 141.901 48.6513 141.682 48.8359 141.5C49.0206 141.318 49.2422 141.227 49.5007 141.227C49.7507 141.227 49.968 141.318 50.1527 141.5C50.3402 141.682 50.4354 141.901 50.4382 142.156C50.4354 142.33 50.3899 142.487 50.3018 142.629C50.2166 142.771 50.103 142.885 49.9609 142.97C49.8217 143.053 49.6683 143.094 49.5007 143.094ZM54.8999 143.166C54.1982 143.166 53.5959 142.989 53.093 142.634C52.593 142.276 52.2081 141.76 51.9382 141.087C51.6712 140.411 51.5376 139.597 51.5376 138.645C51.5405 137.693 51.6754 136.884 51.9425 136.216C52.2124 135.545 52.5973 135.034 53.0973 134.682C53.6001 134.33 54.201 134.153 54.8999 134.153C55.5987 134.153 56.1996 134.33 56.7024 134.682C57.2053 135.034 57.5902 135.545 57.8572 136.216C58.1271 136.886 58.2621 137.696 58.2621 138.645C58.2621 139.599 58.1271 140.415 57.8572 141.091C57.5902 141.764 57.2053 142.278 56.7024 142.634C56.2024 142.989 55.6016 143.166 54.8999 143.166ZM54.8999 141.832C55.4453 141.832 55.8757 141.564 56.1911 141.027C56.5092 140.487 56.6683 139.693 56.6683 138.645C56.6683 137.952 56.5959 137.369 56.451 136.898C56.3061 136.426 56.1016 136.071 55.8374 135.832C55.5732 135.591 55.2607 135.47 54.8999 135.47C54.3572 135.47 53.9283 135.74 53.6129 136.28C53.2976 136.817 53.1385 137.605 53.1357 138.645C53.1328 139.341 53.2024 139.926 53.3445 140.401C53.4893 140.875 53.6939 141.233 53.9581 141.474C54.2223 141.713 54.5362 141.832 54.8999 141.832ZM62.9038 143.166C62.2021 143.166 61.5998 142.989 61.0969 142.634C60.5969 142.276 60.212 141.76 59.9421 141.087C59.6751 140.411 59.5415 139.597 59.5415 138.645C59.5444 137.693 59.6793 136.884 59.9464 136.216C60.2163 135.545 60.6012 135.034 61.1012 134.682C61.604 134.33 62.2049 134.153 62.9038 134.153C63.6026 134.153 64.2035 134.33 64.7063 134.682C65.2092 135.034 65.5941 135.545 65.8612 136.216C66.131 136.886 66.266 137.696 66.266 138.645C66.266 139.599 66.131 140.415 65.8612 141.091C65.5941 141.764 65.2092 142.278 64.7063 142.634C64.2063 142.989 63.6055 143.166 62.9038 143.166ZM62.9038 141.832C63.4492 141.832 63.8796 141.564 64.195 141.027C64.5131 140.487 64.6722 139.693 64.6722 138.645C64.6722 137.952 64.5998 137.369 64.4549 136.898C64.31 136.426 64.1055 136.071 63.8413 135.832C63.5771 135.591 63.2646 135.47 62.9038 135.47C62.3612 135.47 61.9322 135.74 61.6168 136.28C61.3015 136.817 61.1424 137.605 61.1396 138.645C61.1367 139.341 61.2063 139.926 61.3484 140.401C61.4933 140.875 61.6978 141.233 61.962 141.474C62.2262 141.713 62.5401 141.832 62.9038 141.832Z" fill="#5F6980"/>
</g>
<defs>
<filter id="filter0_d_1_241" x="0" y="0" width="282" height="182" filterUnits="userSpaceOnUse" color-interpolation-filters="sRGB">
<feFlood flood-opacity="0" result="BackgroundImageFix"/>
<feColorMatrix in="SourceAlpha" type="matrix" values="0 0 0 0 0 0 0 0 0 0 0 0 0 0 0 0 0 0 127 0" result="hardAlpha"/>
<feOffset dy="1"/>
<feGaussianBlur stdDeviation="5"/>
<feColorMatrix type="matrix" values="0 0 0 0 0 0 0 0 0 0 0 0 0 0 0 0 0 0 0.06 0"/>
<feBlend mode="normal" in2="BackgroundImageFix" result="effect1_dropShadow_1_241"/>
<feBlend mode="normal" in="SourceGraphic" in2="effect1_dropShadow_1_241" result="shape"/>
</filter>
</defs>
</svg>
